<?xml version="1.0" encoding="UTF-8" standalone="no"?>
<!-- Created with Inkscape (http://www.inkscape.org/) -->
<svg
   xmlns:dc="http://purl.org/dc/elements/1.1/"
   xmlns:cc="http://creativecommons.org/ns#"
   xmlns:rdf="http://www.w3.org/1999/02/22-rdf-syntax-ns#"
   xmlns:svg="http://www.w3.org/2000/svg"
   xmlns="http://www.w3.org/2000/svg"
   xmlns:xlink="http://www.w3.org/1999/xlink"
   xmlns:sodipodi="http://sodipodi.sourceforge.net/DTD/sodipodi-0.dtd"
   xmlns:inkscape="http://www.inkscape.org/namespaces/inkscape"
   inkscape:export-ydpi="72.000000"
   inkscape:export-xdpi="72.000000"
   inkscape:export-filename="/home/danny/sea_theme.png"
   sodipodi:docname="khangman_sea.svg"
   sodipodi:docbase="/home/danny/work/kde/EDU/khangman/clean_svg"
   inkscape:version="0.46"
   sodipodi:version="0.32"
   id="svg1"
   height="535.00000pt"
   width="700.00000pt"
   inkscape:output_extension="org.inkscape.output.svg.inkscape">
  <defs
     id="defs3">
    <inkscape:perspective
       sodipodi:type="inkscape:persp3d"
       inkscape:vp_x="0 : 334.375 : 1"
       inkscape:vp_y="0 : 1000 : 0"
       inkscape:vp_z="875 : 334.375 : 1"
       inkscape:persp3d-origin="437.5 : 222.91667 : 1"
       id="perspective176" />
    <linearGradient
       id="linearGradient4532">
      <stop
         id="stop4533"
         offset="0.0000000"
         style="stop-color:#e3ed56;stop-opacity:0.50196081;" />
      <stop
         id="stop4534"
         offset="1.0000000"
         style="stop-color:#e3ed56;stop-opacity:0.20000000;" />
    </linearGradient>
    <linearGradient
       id="linearGradient4348">
      <stop
         id="stop4349"
         offset="0.0000000"
         style="stop-color:#0f2a68;stop-opacity:1.0000000;" />
      <stop
         id="stop4350"
         offset="1.0000000"
         style="stop-color:#2d457d;stop-opacity:1.0000000;" />
    </linearGradient>
    <linearGradient
       id="linearGradient708">
      <stop
         id="stop709"
         offset="0"
         style="stop-color:#d5e7ff;stop-opacity:0.6039;" />
      <stop
         id="stop710"
         offset="1"
         style="stop-color:#ffffff;stop-opacity:0.9294;" />
    </linearGradient>
    <linearGradient
       id="linearGradient688">
      <stop
         id="stop689"
         offset="0"
         style="stop-color:#b20000;stop-opacity:1;" />
      <stop
         id="stop690"
         offset="1"
         style="stop-color:#ff0000;stop-opacity:1;" />
    </linearGradient>
    <linearGradient
       id="linearGradient612">
      <stop
         id="stop613"
         offset="0"
         style="stop-color:#000000;stop-opacity:1;" />
      <stop
         id="stop614"
         offset="1"
         style="stop-color:#ffffff;stop-opacity:1;" />
    </linearGradient>
    <linearGradient
       id="linearGradient616">
      <stop
         id="stop617"
         offset="0"
         style="stop-color:#8c8c8c;stop-opacity:1;" />
      <stop
         id="stop618"
         offset="1"
         style="stop-color:#ffffff;stop-opacity:1;" />
    </linearGradient>
    <linearGradient
       gradientUnits="userSpaceOnUse"
       gradientTransform="scale(0.597613,1.673323)"
       y2="111.13909"
       x2="704.57905"
       y1="111.13909"
       x1="690.08158"
       id="linearGradient672"
       xlink:href="#linearGradient1625" />
    <linearGradient
       gradientUnits="userSpaceOnUse"
       gradientTransform="scale(4.806238,0.208063)"
       y2="4507.3113"
       x2="117.42651"
       y1="4507.3113"
       x1="56.119175"
       id="linearGradient1649"
       xlink:href="#linearGradient1651" />
    <linearGradient
       gradientUnits="userSpaceOnUse"
       gradientTransform="scale(4.609853,0.216927)"
       y2="4268.7726"
       x2="119.87062"
       y1="4268.7726"
       x1="61.068328"
       id="linearGradient1648"
       xlink:href="#linearGradient1651" />
    <linearGradient
       gradientUnits="userSpaceOnUse"
       gradientTransform="scale(4.393043,0.227633)"
       y2="4021.9504"
       x2="123.10191"
       y1="4021.9504"
       x1="67.065206"
       id="linearGradient1647"
       xlink:href="#linearGradient1651" />
    <linearGradient
       gradientUnits="userSpaceOnUse"
       gradientTransform="scale(0.592478,1.687826)"
       y2="539.75106"
       x2="624.76877"
       y1="477.81814"
       x1="686.59900"
       id="linearGradient1638"
       xlink:href="#linearGradient1625" />
    <linearGradient
       id="linearGradient1643">
      <stop
         id="stop1644"
         offset="0.0000000"
         style="stop-color:#602f12;stop-opacity:1.0000000;" />
      <stop
         id="stop1645"
         offset="1.0000000"
         style="stop-color:#603c2f;stop-opacity:1.0000000;" />
    </linearGradient>
    <linearGradient
       gradientUnits="userSpaceOnUse"
       gradientTransform="scale(0.816497,1.224745)"
       y2="741.22698"
       x2="468.58167"
       y1="657.17779"
       x1="555.85476"
       id="linearGradient1642"
       xlink:href="#linearGradient1643" />
    <linearGradient
       id="linearGradient1625">
      <stop
         id="stop1626"
         offset="0"
         style="stop-color:#000000;stop-opacity:1;" />
      <stop
         id="stop1627"
         offset="1"
         style="stop-color:#a7a6a6;stop-opacity:1;" />
    </linearGradient>
    <linearGradient
       gradientUnits="userSpaceOnUse"
       gradientTransform="scale(1.204268,0.830380)"
       y2="644.08484"
       x2="428.94810"
       y1="656.07920"
       x1="311.59755"
       id="linearGradient1628"
       xlink:href="#linearGradient1625" />
    <linearGradient
       gradientUnits="userSpaceOnUse"
       gradientTransform="scale(1.230022,0.812994)"
       y2="821.12157"
       x2="382.47362"
       y1="827.31016"
       x1="244.95914"
       id="linearGradient1617"
       xlink:href="#linearGradient1618" />
    <linearGradient
       id="linearGradient1618">
      <stop
         id="stop1619"
         offset="0"
         style="stop-color:#7f7f7f;stop-opacity:1;" />
      <stop
         id="stop1620"
         offset="1"
         style="stop-color:#f0f0f0;stop-opacity:1;" />
    </linearGradient>
    <linearGradient
       gradientUnits="userSpaceOnUse"
       gradientTransform="scale(1.922245,0.520225)"
       y2="605.57270"
       x2="273.06534"
       y1="605.57270"
       x1="159.38548"
       id="linearGradient1629"
       xlink:href="#linearGradient1618" />
    <linearGradient
       id="linearGradient1651">
      <stop
         id="stop1652"
         offset="0"
         style="stop-color:#6b6b6a;stop-opacity:1;" />
      <stop
         id="stop1653"
         offset="1"
         style="stop-color:#bdbdbd;stop-opacity:1;" />
    </linearGradient>
    <linearGradient
       gradientUnits="userSpaceOnUse"
       gradientTransform="scale(0.609994,1.639360)"
       y2="224.16771"
       x2="859.86171"
       y1="224.16771"
       x1="509.34479"
       id="linearGradient1650"
       xlink:href="#linearGradient1651" />
    <linearGradient
       gradientUnits="userSpaceOnUse"
       y2="571.20948"
       x2="296.52007"
       y1="571.20948"
       x1="207.13326"
       gradientTransform="scale(1.645151,0.607847)"
       id="linearGradient1611"
       xlink:href="#linearGradient1607" />
    <linearGradient
       gradientUnits="userSpaceOnUse"
       y2="327.68792"
       x2="402.78618"
       y1="327.68792"
       x1="281.39852"
       gradientTransform="scale(1.210969,0.825785)"
       id="linearGradient1610"
       xlink:href="#linearGradient1607" />
    <linearGradient
       id="linearGradient1607">
      <stop
         id="stop1608"
         offset="0"
         style="stop-color:#870000;stop-opacity:1;" />
      <stop
         id="stop1609"
         offset="1"
         style="stop-color:#ff0000;stop-opacity:1;" />
    </linearGradient>
    <radialGradient
       gradientUnits="userSpaceOnUse"
       gradientTransform="scale(2.064387,0.484405)"
       fy="457.24687"
       fx="171.34531"
       r="60.914314"
       cy="457.24687"
       cx="171.34531"
       id="radialGradient1612"
       xlink:href="#linearGradient1607" />
    <radialGradient
       gradientUnits="userSpaceOnUse"
       gradientTransform="scale(1.019049,0.981307)"
       spreadMethod="reflect"
       fy="281.54850"
       fx="409.99095"
       r="3.7360883"
       cy="281.54850"
       cx="409.99095"
       id="radialGradient1654"
       xlink:href="#linearGradient1655" />
    <radialGradient
       gradientUnits="userSpaceOnUse"
       gradientTransform="scale(0.392072,2.550551)"
       spreadMethod="reflect"
       fy="104.84513"
       fx="968.32785"
       r="0.84410301"
       cy="104.84513"
       cx="968.32785"
       id="radialGradient1662"
       xlink:href="#linearGradient1655" />
    <linearGradient
       id="linearGradient1655">
      <stop
         id="stop1656"
         offset="0"
         style="stop-color:#fde700;stop-opacity:1;" />
      <stop
         id="stop1657"
         offset="1"
         style="stop-color:#fffaff;stop-opacity:1;" />
    </linearGradient>
    <radialGradient
       gradientUnits="userSpaceOnUse"
       gradientTransform="scale(0.401753,2.489091)"
       spreadMethod="reflect"
       fy="107.39912"
       fx="1119.8128"
       r="0.88543376"
       cy="107.39912"
       cx="1119.8128"
       id="radialGradient1661"
       xlink:href="#linearGradient1655" />
    <linearGradient
       id="linearGradient1669">
      <stop
         id="stop1670"
         offset="0"
         style="stop-color:#fd5a00;stop-opacity:1;" />
      <stop
         id="stop1671"
         offset="1"
         style="stop-color:#fffa7d;stop-opacity:1;" />
    </linearGradient>
    <linearGradient
       gradientUnits="userSpaceOnUse"
       gradientTransform="scale(2.860064,0.349643)"
       spreadMethod="reflect"
       y2="684.93348"
       x2="143.33174"
       y1="685.12125"
       x1="136.00815"
       id="linearGradient1668"
       xlink:href="#linearGradient1669" />
    <linearGradient
       id="linearGradient657">
      <stop
         id="stop658"
         offset="0.0000000"
         style="stop-color:#4c3f8a;stop-opacity:1.0000000;" />
      <stop
         id="stop659"
         offset="1.0000000"
         style="stop-color:#7f7f7f;stop-opacity:1.0000000;" />
    </linearGradient>
    <linearGradient
       gradientUnits="userSpaceOnUse"
       y2="700.70703"
       x2="55.562515"
       y1="102.54455"
       x1="626.31342"
       gradientTransform="matrix(1.136993,0,0,0.879513,-2e-5,2.675524e-4)"
       id="linearGradient8709"
       xlink:href="#linearGradient657"
       inkscape:collect="always" />
    <linearGradient
       gradientUnits="userSpaceOnUse"
       gradientTransform="scale(2.860064,0.349643)"
       y2="849.70833"
       x2="143.44429"
       y1="849.89610"
       x1="136.12070"
       spreadMethod="reflect"
       id="linearGradient3598"
       xlink:href="#linearGradient1669"
       inkscape:collect="always" />
    <linearGradient
       gradientUnits="userSpaceOnUse"
       gradientTransform="scale(1.716794,0.582481)"
       y2="507.33970"
       x2="240.04778"
       y1="507.45777"
       x1="235.44271"
       spreadMethod="reflect"
       id="linearGradient3599"
       xlink:href="#linearGradient1669"
       inkscape:collect="always" />
    <linearGradient
       gradientUnits="userSpaceOnUse"
       gradientTransform="scale(2.097619,0.476731)"
       y2="650.62183"
       x2="195.03113"
       y1="650.92553"
       x1="183.18563"
       spreadMethod="reflect"
       id="linearGradient3600"
       xlink:href="#linearGradient1669"
       inkscape:collect="always" />
    <linearGradient
       gradientUnits="userSpaceOnUse"
       gradientTransform="scale(1.273231,0.785404)"
       y2="537.67593"
       x2="364.26180"
       y1="543.01978"
       x1="245.51786"
       id="linearGradient3601"
       xlink:href="#linearGradient1618"
       inkscape:collect="always" />
    <linearGradient
       y2="631.36396"
       x2="78.086602"
       y1="631.36396"
       x1="0.74331946"
       gradientTransform="scale(1.075597,0.929716)"
       gradientUnits="userSpaceOnUse"
       id="linearGradient3698"
       xlink:href="#linearGradient616"
       inkscape:collect="always" />
    <radialGradient
       r="19.693074"
       fy="1170.9109"
       fx="177.90765"
       cy="1170.9109"
       cx="177.90765"
       gradientTransform="scale(2.296240,0.435495)"
       gradientUnits="userSpaceOnUse"
       id="radialGradient3699"
       xlink:href="#linearGradient612"
       inkscape:collect="always" />
    <linearGradient
       y2="605.28434"
       x2="354.14171"
       y1="605.28434"
       x1="340.53179"
       gradientTransform="scale(1.175885,0.850423)"
       gradientUnits="userSpaceOnUse"
       id="linearGradient3700"
       xlink:href="#linearGradient616"
       inkscape:collect="always" />
    <linearGradient
       y2="459.04145"
       x2="390.64810"
       y1="482.72543"
       x1="351.80184"
       gradientTransform="scale(0.928997,1.076430)"
       gradientUnits="userSpaceOnUse"
       id="linearGradient3701"
       xlink:href="#linearGradient616"
       inkscape:collect="always" />
    <linearGradient
       y2="610.26025"
       x2="212.67508"
       y1="674.44264"
       x1="285.77763"
       gradientTransform="scale(1.125636,0.888387)"
       gradientUnits="userSpaceOnUse"
       id="linearGradient3702"
       xlink:href="#linearGradient616"
       inkscape:collect="always" />
    <linearGradient
       y2="1600.4637"
       x2="251.59475"
       y1="1892.6005"
       x1="83.847125"
       gradientTransform="scale(2.680241,0.373101)"
       gradientUnits="userSpaceOnUse"
       id="linearGradient3704"
       xlink:href="#linearGradient616"
       inkscape:collect="always" />
    <linearGradient
       y2="1419.6233"
       x2="295.01212"
       y1="1583.7765"
       x1="167.36376"
       gradientTransform="scale(2.022425,0.494456)"
       gradientUnits="userSpaceOnUse"
       id="linearGradient3705"
       xlink:href="#linearGradient688"
       inkscape:collect="always" />
    <linearGradient
       y2="912.04315"
       x2="237.28253"
       y1="877.01210"
       x1="236.01318"
       gradientTransform="scale(1.672591,0.597875)"
       gradientUnits="userSpaceOnUse"
       id="linearGradient3706"
       xlink:href="#linearGradient688"
       inkscape:collect="always" />
    <radialGradient
       r="50.250251"
       fy="1265.3102"
       fx="163.19968"
       cy="1265.3102"
       cx="163.19968"
       gradientTransform="scale(2.261111,0.442260)"
       gradientUnits="userSpaceOnUse"
       id="radialGradient3707"
       xlink:href="#linearGradient708"
       inkscape:collect="always" />
    <linearGradient
       y2="224.80453"
       x2="846.63971"
       y1="225.95898"
       x1="811.28097"
       gradientTransform="scale(0.350438,2.853570)"
       gradientUnits="userSpaceOnUse"
       id="linearGradient3708"
       xlink:href="#linearGradient688"
       inkscape:collect="always" />
    <linearGradient
       y2="223.97140"
       x2="894.81239"
       y1="223.97140"
       x1="871.21861"
       gradientTransform="scale(0.350438,2.853570)"
       gradientUnits="userSpaceOnUse"
       id="linearGradient3709"
       xlink:href="#linearGradient688"
       inkscape:collect="always" />
    <linearGradient
       y2="221.77823"
       x2="949.36165"
       y1="221.77823"
       x1="925.76787"
       gradientTransform="scale(0.350438,2.853570)"
       gradientUnits="userSpaceOnUse"
       id="linearGradient3710"
       xlink:href="#linearGradient688"
       inkscape:collect="always" />
    <linearGradient
       y2="1826.3501"
       x2="179.49144"
       y1="2268.8198"
       x1="0.69675409"
       gradientTransform="scale(3.017886,0.331358)"
       gradientUnits="userSpaceOnUse"
       id="linearGradient3711"
       xlink:href="#linearGradient612"
       inkscape:collect="always" />
    <linearGradient
       y2="378.38247"
       x2="526.56593"
       y1="378.86879"
       x1="508.96382"
       gradientTransform="scale(0.569275,1.756621)"
       gradientUnits="userSpaceOnUse"
       id="linearGradient3712"
       xlink:href="#linearGradient612"
       inkscape:collect="always" />
    <linearGradient
       y2="588.87964"
       x2="103.25430"
       y1="589.50400"
       x1="80.656015"
       gradientTransform="scale(0.811577,1.232168)"
       gradientUnits="userSpaceOnUse"
       id="linearGradient3713"
       xlink:href="#linearGradient612"
       inkscape:collect="always" />
    <linearGradient
       y2="589.04920"
       x2="77.783513"
       y1="589.67356"
       x1="55.185239"
       gradientTransform="scale(0.811578,1.232168)"
       gradientUnits="userSpaceOnUse"
       id="linearGradient3714"
       xlink:href="#linearGradient612"
       inkscape:collect="always" />
    <linearGradient
       gradientUnits="userSpaceOnUse"
       y2="809.40149"
       x2="241.50491"
       y1="1314.8643"
       x1="241.50491"
       gradientTransform="matrix(1.899025,0.000000,0.000000,0.526586,0.000000,22.50000)"
       id="linearGradient4351"
       xlink:href="#linearGradient4348"
       inkscape:collect="always" />
    <linearGradient
       gradientUnits="userSpaceOnUse"
       y2="119.68046"
       x2="599.13111"
       y1="119.68046"
       x1="-26.017920"
       gradientTransform="matrix(1.22951,0,0,0.813332,-1580,0)"
       id="linearGradient4535"
       xlink:href="#linearGradient4532"
       inkscape:collect="always" />
    <linearGradient
       inkscape:collect="always"
       xlink:href="#linearGradient1643"
       id="linearGradient2093"
       gradientUnits="userSpaceOnUse"
       gradientTransform="scale(1.31877,0.758282)"
       x1="399.01685"
       y1="784.94434"
       x2="676.12042"
       y2="784.94434" />
    <linearGradient
       inkscape:collect="always"
       xlink:href="#linearGradient4532"
       id="linearGradient4352"
       gradientUnits="userSpaceOnUse"
       gradientTransform="matrix(1.22951,0,0,0.813332,-2360,360)"
       x1="605.62219"
       y1="119.68046"
       x2="1233.3928"
       y2="119.68046" />
    <linearGradient
       inkscape:collect="always"
       xlink:href="#linearGradient4532"
       id="linearGradient4861"
       gradientUnits="userSpaceOnUse"
       gradientTransform="matrix(1.22951,0,0,0.813332,-2360,720)"
       x1="605.90613"
       y1="119.68046"
       x2="1233.403"
       y2="119.68046" />
    <linearGradient
       inkscape:collect="always"
       xlink:href="#linearGradient4532"
       id="linearGradient6767"
       gradientUnits="userSpaceOnUse"
       gradientTransform="matrix(1.22951,0,0,0.813332,-2360,1080)"
       x1="605.62616"
       y1="119.68046"
       x2="1233.4562"
       y2="119.68046" />
    <linearGradient
       inkscape:collect="always"
       xlink:href="#linearGradient4532"
       id="linearGradient7288"
       gradientUnits="userSpaceOnUse"
       gradientTransform="matrix(1.22951,0,0,0.813332,-3160,1440)"
       x1="1256.998"
       y1="119.68046"
       x2="1884.4348"
       y2="119.68046" />
    <linearGradient
       inkscape:collect="always"
       xlink:href="#linearGradient4532"
       id="linearGradient7804"
       gradientUnits="userSpaceOnUse"
       gradientTransform="matrix(1.22951,0,0,0.813332,-2360,0)"
       x1="1253.9722"
       y1="119.68046"
       x2="1884.1655"
       y2="119.68046" />
    <linearGradient
       inkscape:collect="always"
       xlink:href="#linearGradient4532"
       id="linearGradient8566"
       gradientUnits="userSpaceOnUse"
       gradientTransform="matrix(1.22951,0,0,0.813332,-2360,360)"
       x1="1257.5276"
       y1="119.68046"
       x2="1884.1655"
       y2="119.68046" />
    <linearGradient
       inkscape:collect="always"
       xlink:href="#linearGradient4532"
       id="linearGradient9082"
       gradientUnits="userSpaceOnUse"
       gradientTransform="matrix(1.22951,0,0,0.813332,-2360,720)"
       x1="1258.0632"
       y1="119.68046"
       x2="1884.1655"
       y2="119.68046" />
    <linearGradient
       inkscape:collect="always"
       xlink:href="#linearGradient4532"
       id="linearGradient10090"
       gradientUnits="userSpaceOnUse"
       gradientTransform="matrix(1.22951,0,0,0.813332,-2360,1080)"
       x1="1258.099"
       y1="119.68046"
       x2="1884.0602"
       y2="119.68046" />
    <linearGradient
       inkscape:collect="always"
       xlink:href="#linearGradient4532"
       id="linearGradient10606"
       gradientUnits="userSpaceOnUse"
       gradientTransform="matrix(1.22951,0,0,0.813332,-2360,1440)"
       x1="1257.8949"
       y1="119.68046"
       x2="1884.1405"
       y2="119.68046" />
    <linearGradient
       inkscape:collect="always"
       xlink:href="#linearGradient1643"
       id="linearGradient3327"
       gradientUnits="userSpaceOnUse"
       gradientTransform="scale(1.31877,0.758282)"
       x1="399.01685"
       y1="784.94434"
       x2="676.12042"
       y2="784.94434" />
  </defs>
  <sodipodi:namedview
     inkscape:guide-bbox="true"
     showguides="true"
     inkscape:window-y="0"
     inkscape:window-x="0"
     inkscape:window-height="714"
     inkscape:window-width="1024"
     inkscape:current-layer="svg1"
     inkscape:cy="236.35825"
     inkscape:cx="831.70895"
     inkscape:zoom="0.76397514"
     inkscape:pageshadow="2"
     inkscape:pageopacity="1"
     borderopacity="1.0"
     bordercolor="#666666"
     pagecolor="white"
     id="base"
     showgrid="false" />
  <metadata
     id="metadata4">
    <rdf:RDF>
      <cc:Work
         rdf:about="">
        <dc:format>image/svg+xml</dc:format>
        <dc:type
           rdf:resource="http://purl.org/dc/dcmitype/StillImage" />
        <dc:creator>
          <cc:Agent>
            <dc:title>Danny Allen</dc:title>
          </cc:Agent>
        </dc:creator>
        <cc:license
           rdf:resource="http://creativecommons.org/licenses/GPL/2.0/" />
      </cc:Work>
      <cc:License
         rdf:about="http://creativecommons.org/licenses/GPL/2.0/">
        <cc:permits
           rdf:resource="http://web.resource.org/cc/Reproduction" />
        <cc:permits
           rdf:resource="http://web.resource.org/cc/Distribution" />
        <cc:requires
           rdf:resource="http://web.resource.org/cc/Notice" />
        <cc:permits
           rdf:resource="http://web.resource.org/cc/DerivativeWorks" />
        <cc:requires
           rdf:resource="http://web.resource.org/cc/ShareAlike" />
        <cc:requires
           rdf:resource="http://web.resource.org/cc/SourceCode" />
      </cc:License>
    </rdf:RDF>
  </metadata>
  <g
     id="layer1"
     inkscape:groupmode="layer"
     inkscape:label="Layer 1" />
  <g
     id="background">
    <path
       sodipodi:nodetypes="ccccc"
       id="rect8699"
       d="M 0,0.00023054063 L 0,668.75023 C 291.54897,668.75023 583.92013,668.75023 875,668.75023 L 875,0.00023054063 C 583.80908,-0.00080685997 291.61674,0.00023047615 0,0.00023054063 z "
       style="color:black;fill:url(#linearGradient8709);fill-opacity:1;fill-rule:evenodd;stroke:none;stroke-width:5;stroke-linecap:round;stroke-linejoin:round;marker:none;marker-start:none;marker-mid:none;marker-end:none;stroke-miterlimit:4;stroke-dashoffset:0;stroke-opacity:1" />
    <g
       id="g1391"
       transform="matrix(0.431252,0,0,0.431252,84.87823,139.7528)">
      <g
         id="g899"
         style="font-size:12px">
        <path
           id="path757"
           d="M 148.82778,407.44183 C 148.82778,413.30989 144.32987,418.07237 138.78781,418.07237 C 133.24575,418.07237 128.74784,413.30989 128.74784,407.44183 C 128.74784,401.57378 133.24575,396.81129 138.78781,396.81129 C 144.32987,396.81129 148.82778,401.57378 148.82778,407.44183 z "
           style="fill:gray;fill-rule:evenodd;stroke-width:1"
           transform="matrix(1.05827,0,0,0.999478,-140.448,187.295)" />
        <path
           style="fill:url(#linearGradient3698);fill-rule:evenodd"
           d="M 0.927362,590.8007 L 35.27508,658.8966 L 83.98972,657.7805 L 18.2665,590.7562 C 17.15168,589.6193 13.78585,587.0526 11.55268,586.9893 L 4.650097,587.2011 C 2.416931,587.1379 0.24412,589.4461 0.927362,590.8007 z "
           id="path610"
           sodipodi:nodetypes="cccsccs" />
      </g>
      <g
         id="g750"
         style="font-size:12px">
        <path
           id="rect736"
           d="M 385.97009,505.49084 L 431.07178,505.49084 C 431.99717,505.49084 432.74216,506.23583 432.74216,507.16122 L 432.74216,513.00784 C 432.74216,513.93323 431.99717,514.67822 431.07178,514.67822 L 385.97009,514.67822 C 385.0447,514.67822 384.29971,513.93323 384.29971,513.00784 L 384.29971,507.16122 C 384.29971,506.23583 385.0447,505.49084 385.97009,505.49084 z "
           style="fill:url(#radialGradient3699);fill-rule:evenodd" />
        <path
           style="fill:url(#linearGradient3700);fill-rule:evenodd"
           d="M 406.7848,514.7945 C 405.5239,514.8155 404.7211,516.7233 403.927,518.4982 L 400.4262,526.3221 L 416.4299,526.3221 L 412.2504,517.5723 C 411.417,515.8275 410.8335,514.7273 409.5712,514.7482 L 406.7848,514.7945 z "
           id="path738"
           sodipodi:nodetypes="csccsss" />
        <path
           style="fill:url(#linearGradient3701);fill-rule:evenodd"
           d="M 319.7179,474.5354 C 318.2261,474.5785 317.5842,475.4841 318.0524,477.0599 L 332.8959,527.0146 L 363.3163,527.0146 L 342.9298,498.5886 L 355.1637,490.5066 C 357.008,489.2882 358.1111,488.1254 354.3321,488.2955 L 336.6224,489.0925 L 327.7244,476.4519 C 326.7069,475.0064 325.9684,474.3549 324.5994,474.3944 L 319.7179,474.5354 z "
           id="path657"
           sodipodi:nodetypes="cscccsscsss" />
        <path
           style="fill:#298000;fill-opacity:1;fill-rule:evenodd"
           d="M 398.2028,518.7674 C 395.8307,518.7674 393.921,521.0063 393.921,523.7874 L 393.921,525.8545 L 402.4845,525.8545 L 402.4845,523.7874 C 402.4845,521.0063 400.5749,518.7674 398.2028,518.7674 z "
           id="path746"
           sodipodi:nodetypes="cccccc" />
        <path
           style="fill:#f1e64d;fill-opacity:1;fill-rule:evenodd"
           d="M 352.1371,481.5604 C 349.765,481.5604 347.8553,483.7993 347.8553,486.5804 L 347.8553,488.6475 L 356.4188,488.6475 L 356.4188,486.5804 C 356.4188,483.7993 354.5092,481.5604 352.1371,481.5604 z "
           id="path747"
           sodipodi:nodetypes="cccccc" />
      </g>
      <g
         id="g1357">
        <g
           id="g1041"
           style="font-size:12px">
          <path
             style="fill:url(#linearGradient3702);fill-rule:evenodd"
             d="M 261.3586,551.4486 C 258.2699,551.9095 256.3951,554.7461 252.3053,563.0371 L 234.0069,600.1323 L 312.3754,599.8907 L 312.271,545.289 C 312.2586,538.7948 303.4319,536.8225 299.3854,539.3385 C 289.0189,545.7191 276.1198,549.2612 261.3586,551.4486 z "
             id="path633"
             sodipodi:nodetypes="csccsss" />
          <path
             style="fill:red;fill-rule:evenodd"
             d="M 252.4787,562.9276 L 242.4055,583.5126 C 255.5996,587.6467 312.5891,582.5258 312.5214,576.6196 L 312.2681,554.5161 C 312.3458,561.2919 263.901,566.1758 252.4787,562.9276 z "
             id="path713"
             sodipodi:nodetypes="ccssc" />
          <path
             style="fill:#ffbe00;fill-rule:evenodd"
             d="M 251.8702,564.0686 L 243.187,581.8632 C 269.0352,586.2317 312.5723,578.6723 312.5214,575.1687 L 312.2681,557.7285 C 312.3332,562.2129 268.4986,568.2117 251.8702,564.0686 z "
             id="path714"
             sodipodi:nodetypes="ccssc" />
        </g>
        <path
           style="font-size:12px;fill:url(#linearGradient3704);fill-rule:evenodd"
           d="M 239.7411,600.056 C 229.3799,600.056 220.4476,608.3277 220.4476,616.0349 L 220.4476,659.0349 L 396.8707,659.0349 C 441.6866,659.0349 535.0669,639.9934 578.7701,627.073 C 601.5655,620.9248 623.4391,617.3958 645.7646,620.3414 C 646.9499,608.2851 603.021,600.4471 582.7464,599.8257 L 239.7411,600.056 z "
           id="path625"
           sodipodi:nodetypes="cccssccc" />
        <path
           style="font-size:12px;fill:url(#linearGradient3705);fill-rule:evenodd"
           d="M 152.4095,614.713 C 147.5226,614.713 140.1963,620.5312 143.5882,624.7838 L 159.4891,640.556 C 163.4428,645.5127 168.8554,647.2861 173.7423,647.2861 L 223.258,646.4508 C 228.145,646.4508 232.0793,641.9592 232.0793,636.3799 L 232.0793,624.7838 C 232.0793,619.2045 228.145,614.713 223.258,614.713 L 152.4095,614.713 z M 305.669,614.4177 C 310.5559,614.39 318.252,620.5594 314.4904,624.4885 L 300.7072,638.8855 C 296.3227,643.4652 291.3409,646.4508 286.4539,646.4508 L 253.6179,646.4508 C 248.7309,646.4508 244.7966,641.9592 244.7966,636.3799 L 244.7966,624.7838 C 244.7966,619.2045 248.731,614.7407 253.6179,614.713 L 305.669,614.4177 z M 73.18719,618.1826 L 113.0431,618.2456 C 117.1832,618.2521 120.9183,620.2733 123.914,625.2198 L 142.0419,643.4599 C 145.1639,648.6151 143.9413,655.1486 137.5572,655.3394 L 41.2155,656.8765 C 34.52685,657.0763 26.8047,654.4314 24.46241,660.6412 L 0.738104,723.5377 C -3.117292,735.9731 9.971458,744.7804 23.36956,753.1488 L 582.9202,757.4744 C 590.2587,757.5311 647.4844,689.8007 646.5244,619.5809 C 646.4036,611.9282 603.7823,614.4997 587.5405,618.0087 C 573.3635,620.864 462.6703,654.3404 413.8862,655.0012 L 325.4008,656.1998 C 315.7846,656.3301 311.3592,647.8638 318.2955,641.0698 L 345.7064,614.2215 C 352.575,607.4939 361.6942,602.2075 361.6976,599.418 L 91.3778,601.6464 C 76.6529,601.7678 62.06972,618.165 73.18719,618.1826 z "
           id="path623"
           sodipodi:nodetypes="cccccccccccccccssscssssscccssssssscss" />
        <path
           style="font-size:12px;fill:url(#linearGradient3706);fill-rule:evenodd"
           d="M 325.4107,544.3602 C 322.4661,544.3602 321.0802,546.9004 320.0955,549.6754 L 313.5991,567.9836 C 312.6144,570.7587 315.9697,573.2987 318.9143,573.2987 L 345.4906,573.2987 C 348.4352,573.2987 350.8058,570.9282 350.8058,567.9836 L 350.8058,549.6754 C 350.8058,546.7308 348.4352,544.3602 345.4906,544.3602 L 325.4107,544.3602 z M 363.7986,544.3602 C 360.8539,544.3602 358.4834,546.7308 358.4834,549.6754 L 358.4834,567.9836 C 358.4834,570.9282 360.8539,573.2987 363.7986,573.2987 L 383.8785,573.2987 C 386.8231,573.2987 389.1937,570.9282 389.1937,567.9836 L 389.1937,549.6754 C 389.1937,546.7308 386.8231,544.3602 383.8785,544.3602 L 363.7986,544.3602 z M 403.9583,543.1791 C 401.0135,543.1791 398.7295,545.551 398.6429,548.4943 L 398.0524,568.5741 C 397.9659,571.5175 400.423,573.8893 403.3677,573.8893 L 448.5471,573.8893 C 451.4918,573.8893 454.411,567.4635 452.3859,565.3259 L 436.4402,548.4943 C 434.4152,546.3568 429.3449,543.1791 426.4003,543.1791 L 403.9583,543.1791 z M 320.2139,536.1764 L 295.6541,601.1403 L 506.5932,599.9592 L 475.7659,573.4441 L 471.2195,573.21 C 467.5979,573.6445 465.1576,571.1261 463.3078,569.1983 L 443.8797,548.3549 C 439.4707,544.8521 438.2573,541.6048 442.7597,541.6855 L 446.4573,541.7465 C 451.6151,541.8391 455.719,542.4028 449.7541,536.4884 C 446.8553,533.4707 432.1309,525.6541 419.4316,525.7399 L 332.0255,526.3304 C 326.1194,526.3703 322.3027,530.6512 320.2139,536.1764 z "
           id="path680"
           sodipodi:nodetypes="cccccccccccccccccccccccccccccccccccccccc" />
        <path
           style="font-size:12px;fill:url(#radialGradient3707);fill-rule:evenodd"
           d="M 325.4107,544.36 C 322.4661,544.36 321.0802,546.9002 320.0955,549.6752 L 313.5991,567.9834 C 312.6144,570.7585 315.9697,573.2985 318.9143,573.2985 L 345.4906,573.2985 C 348.4352,573.2985 350.8058,570.928 350.8058,567.9834 L 350.8058,549.6752 C 350.8058,546.7306 348.4352,544.36 345.4906,544.36 L 325.4107,544.36 z M 363.7985,544.36 C 360.8539,544.36 358.4833,546.7306 358.4833,549.6752 L 358.4833,567.9834 C 358.4833,570.928 360.8539,573.2986 363.7985,573.2986 L 383.8785,573.2986 C 386.8231,573.2986 389.1937,570.928 389.1937,567.9834 L 389.1937,549.6752 C 389.1937,546.7306 386.8231,544.36 383.8785,544.36 L 363.7985,544.36 z M 403.9583,543.1789 C 401.0135,543.1789 398.7295,545.5508 398.6429,548.4941 L 398.0524,568.5739 C 397.9659,571.5173 400.423,573.8891 403.3677,573.8891 L 448.5471,573.8891 C 451.4918,573.8891 454.411,567.4633 452.3859,565.3257 L 436.4402,548.4941 C 434.4152,546.3566 429.3449,543.1789 426.4003,543.1789 L 403.9583,543.1789 z M 442.2376,542.1248 C 439.5879,542.0607 439.424,544.5259 441.1016,546.3166 L 462.8616,569.5447 C 464.5392,571.3355 466.9662,573.1964 469.4159,573.3385 L 475.829,573.7104 L 445.4026,542.2013 L 442.2376,542.1248 z "
           id="path687" />
        <path
           style="font-size:12px;fill:#ffe568;fill-rule:evenodd"
           d="M 108.0765,684.4293 L 106.3047,687.9728 L 383.8786,687.3822 C 545.1077,687.3822 601.7688,653.1385 641.3378,653.1385 C 641.3378,651.9574 641.3378,650.7762 641.3378,649.595 C 601.7688,649.595 545.1077,683.8387 383.8786,683.8387 L 108.0765,684.4293 z "
           id="path651"
           sodipodi:nodetypes="ccccccc" />
        <rect
           style="font-size:12px;fill:url(#linearGradient3708);fill-rule:evenodd"
           id="rect652"
           width="8.2681627"
           height="67.326485"
           x="286.62497"
           y="612.81213"
           ry="8.2681284"
           transform="matrix(0.930454,0.366409,-0.366409,0.930454,0,0)" />
        <rect
           style="font-size:12px;fill:url(#linearGradient3709);fill-rule:evenodd"
           id="rect655"
           width="8.2681637"
           height="67.326492"
           x="305.30835"
           y="605.45471"
           ry="8.2681293"
           transform="matrix(0.930454,0.366409,-0.366409,0.930454,0,0)" />
        <rect
           style="font-size:12px;fill:url(#linearGradient3710);fill-rule:evenodd"
           id="rect654"
           width="8.2681637"
           height="67.326492"
           x="324.4245"
           y="599.19635"
           ry="8.2681293"
           transform="matrix(0.930454,0.366409,-0.366409,0.930454,0,0)" />
        <path
           id="path697"
           d="M 388.60416,636.00061 C 388.60416,641.54266 383.8417,646.04056 377.97366,646.04056 C 372.10563,646.04056 367.34317,641.54266 367.34317,636.00061 C 367.34317,630.45856 372.10563,625.96066 377.97366,625.96066 C 383.8417,625.96066 388.60416,630.45856 388.60416,636.00061 z "
           style="font-size:12px;fill:#333434;fill-rule:evenodd"
           transform="matrix(0.999483,0,0,1.058271,0.195312,-42.96619)" />
        <path
           id="path698"
           d="M 388.60416,636.00061 C 388.60416,641.54266 383.8417,646.04056 377.97366,646.04056 C 372.10563,646.04056 367.34317,641.54266 367.34317,636.00061 C 367.34317,630.45856 372.10563,625.96066 377.97366,625.96066 C 383.8417,625.96066 388.60416,630.45856 388.60416,636.00061 z "
           style="font-size:12px;fill:#333434;fill-rule:evenodd"
           transform="matrix(0.999483,0,0,1.058271,69.88422,-44.14737)" />
        <path
           style="font-size:12px;fill:url(#linearGradient3711);fill-rule:evenodd"
           d="M 630.4397,690.039 C 617.0256,722.4612 602.6992,736.7388 587.5524,757.9004 L 23.38235,753.5268 C 11.35082,753.4335 -7.762396,736.3862 3.31804,716.5595 L 502.2218,717.2617 C 556.2823,717.3378 633.9874,681.2712 630.4397,690.039 z "
           id="path700"
           sodipodi:nodetypes="ccscss" />
        <path
           transform="matrix(0.930454,0.366409,-0.366409,0.930454,0,0)"
           style="font-size:12px;fill:url(#linearGradient3712);fill-rule:evenodd"
           d="M 286.6264,656.9853 L 286.625,671.8705 C 286.625,676.451 288.4688,680.1386 290.7591,680.1386 C 293.0493,680.1386 294.8931,676.451 294.8931,671.8705 L 295.1834,653.7298 C 292.2193,653.9613 287.8127,655.6586 286.6264,656.9853 z "
           id="path702"
           sodipodi:nodetypes="cccccc" />
        <path
           style="font-size:12px;fill:url(#linearGradient3713);fill-rule:evenodd"
           d="M 66.26633,716.3171 L 60.81095,730.1666 C 59.13262,734.4285 59.49702,738.5352 61.62804,739.3744 C 63.75896,740.2136 66.82571,737.458 68.50404,733.1961 L 75.42107,716.4233 C 72.57829,715.5527 67.85624,715.5173 66.26633,716.3171 z "
           id="path705"
           sodipodi:nodetypes="cccccc" />
        <path
           style="font-size:12px;fill:url(#linearGradient3714);fill-rule:evenodd"
           d="M 45.59483,716.5259 L 40.13946,730.3754 C 38.46112,734.6373 38.82552,738.744 40.95654,739.5832 C 43.08747,740.4224 46.15421,737.6668 47.83255,733.4049 L 54.74957,716.6322 C 51.90679,715.7615 47.18475,715.7261 45.59483,716.5259 z "
           id="path706"
           sodipodi:nodetypes="cccccc" />
        <g
           id="g731"
           transform="matrix(0.659992,-0.13875,0.127359,0.605805,135.5594,415.5085)"
           style="font-size:12px">
          <path
             style="fill:#333;fill-opacity:1;fill-rule:evenodd"
             d="M 521.17349,487.75742 L 587.73433,488.03127 C 592.8241,488.03127 596.92164,492.12881 596.92164,497.21858 L 596.92164,513.92296 C 596.92164,519.01273 592.8241,523.11028 587.73433,523.11028 L 521.17349,522.83643 C 516.08372,522.83643 511.98618,518.73888 511.98618,513.64911 L 511.98618,496.94473 C 511.98618,491.85496 516.08372,487.75742 521.17349,487.75742 z "
             id="rect727"
             sodipodi:nodetypes="ccccccccc" />
          <path
             id="text728"
             d="M 547.20879,513.41867 C 546.03879,515.06867 545.37879,515.57867 544.35879,515.57867 C 543.30879,515.57867 542.25879,514.70867 541.38879,513.11867 C 540.51879,511.49867 540.09879,510.47866 538.56879,506.18867 L 536.88879,501.59867 C 541.59878,497.60867 542.79879,496.82867 544.11879,496.82867 C 544.65879,496.82867 545.04879,496.91867 545.88879,497.27867 L 546.99879,495.05867 C 546.24879,494.75867 545.85879,494.66867 545.31879,494.66867 C 544.35879,494.66867 543.72879,494.96867 542.34879,496.10867 L 536.04879,501.26867 C 535.95879,501.35867 535.59879,501.62867 535.08879,502.01867 L 536.64879,495.74867 C 537.51879,495.50867 537.75879,495.35867 538.20879,494.81867 C 536.85879,494.72867 536.22879,494.69867 535.47879,494.69867 C 533.10879,494.69867 531.18879,495.02867 529.86879,495.65867 C 527.61879,496.76867 526.38879,498.53867 526.38879,500.69867 C 526.38879,501.47867 526.50879,501.92867 526.89879,502.94867 L 529.35879,501.89867 C 528.87879,500.72867 528.69879,499.97867 528.69879,499.04867 C 528.69879,496.94867 530.19879,495.80867 532.98879,495.80867 C 533.31879,495.80867 533.79879,495.83867 534.42879,495.89867 C 534.24879,496.67867 533.91879,497.90867 533.52879,499.58867 C 532.59879,503.33866 532.17879,504.89867 531.69879,506.27867 C 530.52879,509.60866 529.41879,510.68867 527.10879,510.68867 L 525.96879,510.68867 L 524.64879,511.97867 L 528.75879,511.97867 C 531.39879,511.97867 531.45879,511.94867 533.49879,510.68867 L 529.86879,510.68867 C 533.52879,507.02867 534.00879,506.24866 534.96879,502.49867 C 535.02879,502.70867 535.11879,502.91867 535.17879,503.15867 C 535.35879,503.66867 535.35879,503.69867 535.71879,504.80867 L 536.25879,506.60867 C 537.54879,510.80866 538.44879,512.87867 539.52879,514.10867 C 540.84879,515.60867 542.67879,516.38867 544.89879,516.38867 C 545.88879,516.38867 546.42879,516.29867 547.53879,515.87867 L 547.20879,513.41867 M 544.38835,511.97867 L 548.19835,511.97867 C 553.14834,511.97867 554.34835,511.88867 555.93835,511.31867 C 558.33835,510.50867 560.79835,508.94867 561.96835,507.50867 C 563.49835,505.61867 564.57835,502.46867 564.57835,499.91867 C 564.57835,497.84867 563.49835,496.28867 561.45835,495.38867 C 560.16835,494.81867 558.63835,494.57867 555.72835,494.39867 L 555.93835,493.55867 L 553.77835,494.45867 C 551.31835,494.87867 549.75835,495.41867 548.16835,496.43867 C 545.61835,498.08867 544.38835,500.09867 544.38835,502.64867 C 544.38835,503.21867 544.41835,503.57867 544.59835,504.35867 L 547.05835,503.24867 C 546.87835,502.46867 546.84835,502.10867 546.84835,501.56867 C 546.84835,497.99867 549.06835,495.89867 553.26835,495.47867 L 551.01835,504.41867 C 549.84835,509.42866 549.06835,510.35867 545.82835,510.59867 L 544.38835,511.97867 M 555.48835,495.32867 C 557.67835,495.41867 558.69835,495.59867 559.62835,496.07867 C 561.09835,496.85867 561.96835,498.50867 561.96835,500.51867 C 561.96835,503.09867 560.97835,506.30867 559.62835,508.01867 C 558.15835,509.90867 556.38835,510.62867 553.29835,510.62867 L 552.84835,510.62867 L 549.00835,510.50867 C 552.48835,507.26867 552.48835,507.26866 553.83835,501.83867 L 555.48835,495.32867 M 573.66872,502.76867 L 575.37872,495.95867 L 576.30872,495.95867 C 577.56871,495.89867 578.49872,495.86867 578.67872,495.86867 C 579.84871,495.86867 580.05872,496.07867 580.86872,498.05867 L 582.84872,496.07867 C 582.75872,495.41867 582.51872,495.08867 582.00872,494.90867 L 575.58872,495.02867 L 575.76872,494.39867 L 573.66872,495.02867 C 570.78872,495.05867 568.95871,495.62867 567.24872,496.97867 C 565.74872,498.17867 565.08872,499.37867 565.08872,500.93867 C 565.08872,501.71867 565.20872,502.31867 565.62872,503.36867 L 567.78872,501.92867 C 567.51872,500.96867 567.39872,500.18867 567.39872,499.43867 C 567.39872,497.09867 569.07872,496.13867 573.15872,496.01867 L 571.47872,502.76867 C 570.96872,503.27867 570.81872,503.45867 570.30872,504.05867 L 571.14872,504.05867 C 571.02872,504.50867 570.93872,504.89867 570.81872,505.25867 C 569.67872,509.87866 569.34871,510.38867 566.88872,510.98867 L 565.74872,511.97867 C 566.58871,512.00867 567.21872,512.00867 567.42872,512.00867 L 570.12872,512.03867 C 571.02871,512.03867 571.83872,512.06867 572.52872,512.09867 C 576.15871,512.21867 576.18872,512.21867 577.47872,512.21867 C 579.03871,512.21867 579.45872,512.03867 580.80872,510.80867 C 582.18871,509.57867 582.69872,508.85867 582.69872,508.16867 C 582.69872,508.01867 582.66872,507.77867 582.57872,507.47867 L 580.29872,508.31867 C 580.38872,508.94867 580.41872,509.18867 580.41872,509.45867 C 580.41872,510.59867 580.02871,510.74867 577.14872,510.74867 L 569.34872,510.74867 C 572.25871,508.07867 572.28872,508.01866 573.36872,503.90867 C 574.89871,503.81867 575.07872,503.81867 575.79872,503.75867 C 576.45872,503.72867 576.90872,503.69867 577.08872,503.69867 C 577.20872,503.66867 577.53872,503.66867 577.89872,503.63867 C 578.43872,503.24867 578.49872,503.18867 579.03872,502.76867 L 573.66872,502.76867"
             style="font-size:36px;font-style:italic;font-weight:normal;writing-mode:lr-tb;text-anchor:start;fill:white;fill-opacity:1;stroke:none;stroke-width:1pt;stroke-linecap:butt;stroke-linejoin:miter;stroke-opacity:1;font-family:URW Chancery L" />
        </g>
      </g>
    </g>
    <path
       sodipodi:nodetypes="cscccccccccsccccc"
       id="path3693"
       d="M 350.25,451.9375 C 349.76883,451.94442 349.26954,451.96867 348.78125,452 C 346.2996,452.15925 343.75173,452.67147 341.125,453.5625 C 307.35968,465.65892 252.24984,469.25253 177.3125,466.34375 C 89.064278,472.41802 86.449966,462.28953 52.65625,463.65625 C 26.938324,464.6955 7.7012547,466.13765 0,468.40625 L 0,668.75 C 291.19091,668.75104 583.38326,668.75 875,668.75 L 875,467.71875 C 815.03447,470.49216 834.03805,462.42752 803.65625,463.65625 C 779.6807,464.6251 761.77806,465.99055 753.15625,468 C 751.43296,463.61168 739.10237,450.96268 722.9375,452 C 720.45584,452.15925 717.90796,452.67147 715.28125,453.5625 C 681.51595,465.65892 626.4061,469.25252 551.46875,466.34375 C 463.22053,472.41802 460.6062,462.28953 426.8125,463.65625 C 404.69313,464.55009 388.16443,465.7994 378.84375,467.5625 C 376.56141,462.95164 365.16639,451.72286 350.25,451.9375 z "
       style="font-size:12px;fill:url(#linearGradient4351);fill-opacity:1;fill-rule:evenodd" />
    <path
       style="fill:url(#linearGradient3327);fill-opacity:1;fill-rule:evenodd;stroke:none;stroke-width:5;stroke-linecap:square;stroke-linejoin:round;stroke-miterlimit:4;stroke-dasharray:none;stroke-opacity:1"
       d="M 705.125,490.15625 C 649.7877,490.14788 596.72551,498.05289 568.84375,517.5 C 568.80668,517.52585 568.75573,517.53661 568.71875,517.5625 C 545.58863,531.87563 532.90423,545.62643 528.25,559.375 C 523.58751,573.14796 527.38725,586.56927 536.09375,599.09375 C 553.50675,624.14271 587.91787,645.0312 621.42073,668.69512 L 629.2721,668.6062 L 626.75,666.71875 C 593.09337,642.94623 556.50752,619.72669 540.1875,596.25 C 532.02749,584.51165 528.87507,573.06144 532.96875,560.96875 C 537.06243,548.87606 548.78747,535.76493 571.46875,521.75 C 571.51099,521.73034 571.55267,521.70949 571.59375,521.6875 C 597.47421,503.56421 650.20791,495.14795 705.125,495.15625 C 739.09168,495.16139 773.92718,498.27907 803.9375,503.9375 C 833.94782,509.59593 859.17348,517.88263 873.59375,527.71875 L 874.87907,528.47053 L 875.0564,522.73476 C 859.49721,512.12179 835.24747,504.75797 804.875,499.03125 C 774.50253,493.30453 739.3977,490.16143 705.125,490.15625 z"
       id="path2095"
       sodipodi:nodetypes="cscsscccssccsscccsc" />
    <path
       sodipodi:nodetypes="cccccc"
       id="path3602"
       d="M 705.125,492.65625 C 649.96102,492.64791 597.02234,500.8115 570.15625,519.625 C 478.37718,576.33597 558.15301,621.31356 625.3125,668.75 C 708.41106,668.75 792.37564,668.75 875,668.75 L 875,525.65625 C 845.02054,505.20716 773.36438,492.66657 705.125,492.65625 z "
       style="fill:#6a3e2f;fill-opacity:1;fill-rule:evenodd;stroke:none;stroke-width:5;stroke-linecap:round;stroke-linejoin:round;stroke-miterlimit:4;stroke-dasharray:none;stroke-opacity:1" />
    <g
       id="g3160"
       transform="matrix(0.508608,0,0,0.508608,533.5635,93.72635)">
      <g
         id="g1685"
         transform="matrix(0.934816,0,0,0.879226,29.06608,46.03017)">
        <path
           style="font-size:12px;fill:url(#linearGradient3598);fill-rule:evenodd"
           d="M 448.9254,297.1796 C 447.7398,297.6672 446.9119,297.1003 446.6309,296.2775 C 436.7946,301.8196 424.9904,292.0447 413.9427,292.0391 C 400.525,292.0322 390.8003,300.1542 382.0288,295.4585 C 381.8801,296.3601 381.2942,297.4962 380.1866,297.1808 C 390.7599,303.378 402.1613,293.8147 413.7994,293.9103 C 425.4706,294.1703 436.5905,306.0006 448.9254,297.1796 z "
           id="path1684"
           sodipodi:nodetypes="ccsccsc" />
        <path
           style="font-size:12px;fill:url(#linearGradient3599);fill-rule:evenodd"
           d="M 400.7615,290.2204 L 400.7615,299.0232 L 426.7067,299.0232 L 426.7067,290.2204 L 400.7615,290.2204 z "
           id="path1683" />
        <path
           style="font-size:12px;fill:url(#linearGradient3600);fill-rule:evenodd"
           d="M 373.4263,299.0233 L 373.4263,317.5556 L 454.9685,317.5556 L 454.9685,299.0233 L 373.4263,299.0233 z "
           id="path1672" />
        <path
           style="font-size:12px;fill:url(#linearGradient1668);fill-rule:evenodd"
           d="M 379.8647,237.6896 C 381.0503,237.202 381.8782,237.7689 382.1592,238.5917 C 391.9955,233.0496 403.7997,242.8245 414.8474,242.8301 C 428.2651,242.837 437.9898,234.715 446.7613,239.4107 C 446.91,238.5091 447.4959,237.373 448.6035,237.6884 C 438.0302,231.4912 426.6288,241.0545 414.9907,240.9589 C 403.3195,240.6989 392.1996,228.8686 379.8647,237.6896 z "
           id="path1673"
           sodipodi:nodetypes="ccsccsc" />
        <path
           id="path1659"
           d="M 454.7529,267.7971 C 454.7529,284.4429 451.6728,297.937 447.8731,297.937 C 444.0735,297.937 444.0735,237.6572 447.8731,237.6572 C 451.6728,237.6572 454.7529,251.1513 454.7529,267.7971 z "
           style="font-size:12px;fill:url(#radialGradient1661);fill-rule:evenodd" />
        <path
           style="font-size:12px;fill:url(#radialGradient1662);fill-rule:evenodd"
           d="M 374.6903,267.4132 C 374.6903,284.059 377.6238,297.5531 381.2426,297.5531 C 384.8612,297.5531 384.8612,237.2733 381.2426,237.2733 C 377.6238,237.2733 374.6903,250.7674 374.6903,267.4132 z "
           id="path1660"
           sodipodi:nodetypes="cccc" />
        <path
           id="path1614"
           d="M 453.84113,276.82776 C 453.84113,295.9852 437.69506,311.53327 417.80081,311.53327 C 397.90656,311.53327 381.7605,295.9852 381.7605,276.82776 C 381.7605,257.67032 397.90656,242.12225 417.80081,242.12225 C 437.69506,242.12225 453.84113,257.67032 453.84113,276.82776 z "
           style="fill:url(#radialGradient1654);fill-opacity:1;fill-rule:evenodd;stroke:none;stroke-width:1pt;stroke-linecap:butt;stroke-linejoin:miter;stroke-opacity:1"
           transform="matrix(0.877875,0,0,0.906552,47.25101,16.06206)" />
      </g>
      <g
         id="g666"
         transform="matrix(0.875559,0,0,0.86571,54.1964,50.27455)">
        <path
           style="font-size:12px;fill:url(#radialGradient1612);fill-rule:evenodd;stroke-width:1"
           d="M 492.4688,222.0172 L 335.8549,222.0172 C 335.8549,201.7212 370.9141,185.268 414.1618,185.268 C 457.4096,185.268 492.4688,201.7212 492.4688,222.0172 z "
           id="path1578"
           sodipodi:nodetypes="cccc" />
        <path
           style="font-size:12px;fill:url(#linearGradient1610);fill-opacity:1;fill-rule:evenodd"
           d="M 340.7649,220.4797 L 340.7649,320.7198 L 487.7616,320.7198 L 487.7616,220.4797 L 340.7649,220.4797 z M 345.4901,224.745 L 345.4901,317.515 L 383.2874,317.515 L 383.2874,224.745 L 345.4901,224.745 z M 388.012,224.745 L 388.012,317.5149 L 440.5738,317.5149 L 440.5738,224.745 L 388.012,224.745 z M 445.2984,224.745 L 445.2984,317.515 L 483.0956,317.515 L 483.0956,224.745 L 445.2984,224.745 z "
           id="path1586" />
        <path
           id="rect1606"
           d="M 340.7655,320.04117 L 487.82031,320.04117 L 487.82031,374.37466 L 340.7655,374.37466 L 340.7655,320.04117 z "
           style="font-size:12px;fill:url(#linearGradient1611);fill-opacity:1;fill-rule:evenodd;stroke-width:1" />
      </g>
      <path
         style="font-size:12px;fill:url(#linearGradient1650);fill-rule:evenodd"
         d="M 334.0833,367.4915 L 310.6974,942.1148 L 524.5107,942.1148 L 497.784,367.4915 L 334.0833,367.4915 z "
         id="path1574"
         sodipodi:nodetypes="ccccc" />
      <path
         style="font-size:12px;fill:url(#linearGradient1629);fill-opacity:1;fill-rule:evenodd"
         d="M 311.567,315.034 C 308.6923,315.034 306.378,317.1322 306.378,319.7385 L 306.378,369.4687 C 306.378,372.0749 308.6923,374.1731 311.567,374.1731 L 519.7096,374.1731 C 522.5843,374.1731 524.8986,372.0749 524.8986,369.4687 L 524.8986,319.7385 C 524.8986,317.1322 522.5843,315.034 519.7096,315.034 L 311.567,315.034 z M 320.9226,322.6021 C 316.4507,322.6021 312.8507,325.866 312.8507,329.9202 L 312.8507,358.6698 C 312.8507,362.7241 316.4507,365.9879 320.9226,365.9879 L 320.9226,365.9879 C 325.3943,365.9879 328.9943,362.7241 328.9943,358.6698 L 328.9943,329.9202 C 328.9943,325.866 325.3943,322.6021 320.9226,322.6021 L 320.9226,322.6021 z M 348.0208,322.6021 C 343.5489,322.6021 339.9488,325.8659 339.9488,329.9202 L 339.9488,358.6698 C 339.9488,362.724 343.5489,365.9879 348.0208,365.9879 L 348.0208,365.9879 C 352.4924,365.9879 356.0925,362.724 356.0925,358.6698 L 356.0925,329.9202 C 356.0925,325.8659 352.4924,322.6021 348.0208,322.6021 L 348.0208,322.6021 z M 375.1189,322.6021 C 370.6471,322.6021 367.0472,325.866 367.0472,329.9202 L 367.0472,358.6698 C 367.0472,362.7241 370.6471,365.9879 375.1189,365.9879 L 375.1189,365.9879 C 379.5908,365.9879 383.1907,362.7241 383.1907,358.6698 L 383.1907,329.9202 C 383.1907,325.866 379.5908,322.6021 375.1189,322.6021 L 375.1189,322.6021 z M 402.7936,322.6021 C 398.3219,322.6021 394.7219,325.8659 394.7219,329.9202 L 394.7219,358.6698 C 394.7219,362.724 398.3219,365.9879 402.7936,365.9879 L 402.7937,365.9879 C 407.2655,365.9879 410.8655,362.724 410.8655,358.6698 L 410.8655,329.9202 C 410.8655,325.8659 407.2655,322.6021 402.7937,322.6021 L 402.7936,322.6021 z M 431.6216,322.602 C 427.1498,322.602 423.5497,325.8659 423.5497,329.9201 L 423.5497,358.6697 C 423.5497,362.724 427.1498,365.9879 431.6216,365.9879 L 431.6216,365.9879 C 436.0933,365.9879 439.6934,362.724 439.6934,358.6697 L 439.6934,329.9201 C 439.6934,325.8659 436.0933,322.602 431.6216,322.602 L 431.6216,322.602 z M 459.8729,322.602 C 455.401,322.602 451.8011,325.8659 451.8011,329.9201 L 451.8011,358.6697 C 451.8011,362.724 455.401,365.9879 459.8729,365.9879 L 459.8729,365.9879 C 464.3447,365.9879 467.9446,362.724 467.9446,358.6697 L 467.9446,329.9201 C 467.9446,325.8659 464.3447,322.602 459.8729,322.602 L 459.8729,322.602 z M 486.3946,322.602 C 481.9227,322.602 478.3228,325.8658 478.3228,329.9201 L 478.3228,358.6697 C 478.3228,362.7239 481.9227,365.9878 486.3946,365.9878 L 486.3946,365.9878 C 490.8664,365.9878 494.4663,362.7239 494.4663,358.6697 L 494.4663,329.9201 C 494.4663,325.8658 490.8664,322.602 486.3946,322.602 L 486.3946,322.602 z M 510.6099,322.6021 C 506.1381,322.6021 502.538,325.8659 502.538,329.9202 L 502.538,358.6698 C 502.538,362.724 506.1381,365.9879 510.6099,365.9879 L 510.61,365.9879 C 515.0816,365.9879 518.6817,362.724 518.6817,358.6698 L 518.6817,329.9202 C 518.6817,325.8659 515.0816,322.6021 510.61,322.6021 L 510.6099,322.6021 z "
         id="path1605" />
      <path
         style="font-size:12px;fill:url(#linearGradient3601);fill-rule:evenodd"
         d="M 333.0393,373.6027 L 329.0349,481.0563 L 503.2297,480.3889 L 498.5579,374.2701 L 333.0393,373.6027 z "
         id="path1622"
         sodipodi:nodetypes="ccccc" />
      <path
         style="font-size:12px;fill:url(#linearGradient1617);fill-rule:evenodd"
         d="M 324.3629,609.1994 L 319.691,738.0102 L 514.5757,738.0102 L 508.569,609.1994 L 324.3629,609.1994 z "
         id="path1623"
         sodipodi:nodetypes="ccccc" />
      <path
         id="rect1613"
         d="M 421.80533,388.95294 L 429.81428,388.95294 L 429.81428,427.81525 L 421.80533,427.81525 L 421.80533,388.95294 z "
         style="font-size:12px;fill:#3b3a3a;fill-opacity:1;fill-rule:evenodd;stroke-width:1" />
      <path
         style="font-size:12px;fill:url(#linearGradient1628);fill-rule:evenodd"
         d="M 329.0348,481.0563 L 323.6956,608.5323 L 508.569,607.8649 L 502.5624,481.0563 L 329.0348,481.0563 z "
         id="path1624"
         sodipodi:nodetypes="ccccc" />
      <path
         id="rect1615"
         d="M 423.14014,505.6925 L 431.14909,505.6925 L 431.14909,545.86428 L 423.14014,545.86428 L 423.14014,505.6925 z "
         style="font-size:12px;fill:#010000;fill-opacity:1;fill-rule:evenodd;stroke-width:1" />
      <path
         style="font-size:12px;fill:url(#linearGradient1642);fill-opacity:1;fill-rule:evenodd"
         d="M 418.8311,804.881 C 400.0723,804.881 384.9705,820.8477 384.9705,840.6808 L 385.9666,907.016 L 453.0605,907.016 L 452.0646,840.6808 C 452.0646,820.8477 439.5816,804.881 420.823,804.881 L 418.8311,804.881 z "
         id="path1631"
         sodipodi:nodetypes="ccccccc"
         transform="translate(-47.13924,9.165924)" />
      <path
         style="font-size:12px;fill:url(#linearGradient1638);fill-rule:evenodd"
         d="M 418.8311,804.881 C 400.0723,804.881 384.9705,820.8477 384.9705,840.6808 L 385.9666,907.016 L 392.827,907.016 L 391.8311,840.6808 C 391.8311,820.8477 408.1554,808.8093 420.823,804.881 L 418.8311,804.881 z "
         id="path1632"
         sodipodi:nodetypes="ccccccc"
         transform="translate(-47.13924,9.165924)" />
      <path
         id="rect1639"
         d="M 294.62033,915.52722 L 540.79202,915.52722 L 540.79202,928.28301 L 294.62033,928.28301 L 294.62033,915.52722 z "
         style="font-size:12px;fill:url(#linearGradient1647);fill-rule:evenodd;stroke-width:1" />
      <path
         id="rect1640"
         d="M 281.51602,926.01068 L 552.58597,926.01068 L 552.58597,938.76647 L 281.51602,938.76647 L 281.51602,926.01068 z "
         style="font-size:12px;fill:url(#linearGradient1648);fill-rule:evenodd;stroke-width:1" />
      <path
         id="rect1641"
         d="M 269.72214,937.80457 L 564.37982,937.80457 L 564.37982,950.56035 L 269.72214,950.56035 L 269.72214,937.80457 z "
         style="font-size:12px;fill:url(#linearGradient1649);fill-rule:evenodd;stroke-width:1" />
      <path
         style="fill:none;fill-opacity:1;fill-rule:evenodd;stroke:black;stroke-width:1.96615067pt;stroke-linecap:butt;stroke-linejoin:miter;stroke-opacity:1"
         d="M 374.7836,816.4844 L 376.0941,913.4564"
         id="path1646" />
      <path
         id="rect670"
         d="M 412.40186,185.97162 L 421.06573,185.97162 L 421.06573,210.23057 L 412.40186,210.23057 L 412.40186,185.97162 z "
         style="font-size:12px;fill:url(#linearGradient672);fill-rule:evenodd;stroke-width:1" />
      <path
         id="rect671"
         d="M 421.06573,139.18665 L 424.53131,139.18665 L 424.53131,198.10121 L 421.06573,198.10121 L 421.06573,139.18665 z "
         style="font-size:12px;fill:gray;fill-rule:evenodd;stroke-width:1" />
    </g>
    <path
       id="path1427"
       d="M 348.5,446.78125 C 331.14584,447.1857 323.34664,458.70413 307.1875,456.1875 C 274.20107,451.16855 269.76789,462.68355 245.0625,462.4375 C 220.3571,462.1915 181.47875,457.04936 153.15625,459.96875 C 123.38366,463.66198 110.5391,468.04419 68.0625,459 C 44.051818,453.63015 42.798769,461.27895 24.15625,462.9375 C 5.5137185,464.59589 18.747143,463.39602 8.34375,465.3125 C 5.1436446,465.90202 2.3478988,466.30452 0,466.71875 L 0,474.65625 C 2.2145876,475.304 4.984891,475.94838 8.59375,476.46875 C 19.07535,477.98012 8.9809303,468.47827 34.4375,469.28125 C 53.154676,469.89765 70.343942,458.57598 91.3125,470.625 C 117.72412,486.41644 178.25736,468.83397 206.75,468.28125 C 235.2427,467.72855 280.14017,475.7976 304.8125,474.59375 C 329.4848,473.38991 323.89173,464.9143 342.375,462.125 C 352.2222,460.01397 367.00366,449.1079 356.5625,447.375 C 353.6409,446.90576 350.97917,446.72347 348.5,446.78125 z "
       style="font-size:12px;fill:#dfffff;fill-rule:evenodd" />
  </g>
  <path
     style="fill:url(#linearGradient4535);fill-opacity:1;fill-rule:evenodd;stroke:none;stroke-width:0.25000012pt;stroke-linecap:butt;stroke-linejoin:miter;stroke-opacity:1"
     d="M -1580,0 L -1580,347.625 L -855.96875,261.84375 L -843.53125,218.625 L -1367.9062,0 L -1580,0 z M -1552.4375,253.40625 L -1345.4688,253.40625 C -1342.9014,253.40651 -1340.8128,255.49514 -1340.8125,258.0625 L -1340.8125,289.9375 C -1340.8128,292.50486 -1342.9014,294.59348 -1345.4688,294.59375 L -1552.4375,294.59375 C -1555.0049,294.59349 -1557.0935,292.50486 -1557.0938,289.9375 L -1557.0938,258.0625 C -1557.0935,255.49514 -1555.0049,253.40651 -1552.4375,253.40625 z M -1547.7812,262.71875 L -1547.7812,285.28125 L -1350.125,285.28125 L -1350.125,262.71875 L -1547.7812,262.71875 z "
     id="ani1" />
  <path
     style="fill:url(#linearGradient4352);fill-opacity:1;fill-rule:evenodd;stroke:none;stroke-width:0.25000012pt;stroke-linecap:butt;stroke-linejoin:miter;stroke-opacity:1"
     d="M -1580,360 L -1580,707.625 L -855.96875,621.84375 L -843.53125,578.625 L -1367.9062,360 L -1580,360 z M -1487.7188,561 C -1485.6043,561 -1483.4628,562.22017 -1481.0312,564.65625 L -1431.2188,613.40625 L -1345.4688,613.40625 C -1342.9014,613.40651 -1340.8128,615.49514 -1340.8125,618.0625 L -1340.8125,649.9375 C -1340.8128,652.50486 -1342.9014,654.59348 -1345.4688,654.59375 L -1552.4375,654.59375 C -1555.0049,654.59349 -1557.0935,652.50486 -1557.0938,649.9375 L -1557.0938,618.0625 C -1557.0935,615.49514 -1555.0049,613.40651 -1552.4375,613.40625 L -1544,613.40625 L -1493.0625,563.71875 C -1491.2176,562.0521 -1489.4677,561 -1487.7188,561 z M -1487.625,573.21875 C -1489.6714,573.21875 -1491.722,574.76222 -1494.5,577.8125 C -1494.5241,577.83899 -1530.7188,613.40625 -1530.7188,613.40625 L -1513.6562,613.40625 L -1494.2188,594.375 C -1491.9207,591.93892 -1489.8332,590.71875 -1487.7188,590.71875 C -1485.6043,590.71875 -1483.4628,591.93892 -1481.0312,594.375 L -1461.5938,613.40625 L -1444.5,613.40625 L -1480.6875,577.875 C -1483.5025,574.7715 -1485.5608,573.21875 -1487.625,573.21875 z M -1487.625,602.96875 L -1500.4688,613.40625 L -1474.7812,613.40625 C -1478.9579,610.25726 -1482.0923,603.79821 -1487.625,602.96875 z M -1547.7812,622.71875 L -1547.7812,645.28125 L -1350.125,645.28125 L -1350.125,622.71875 L -1547.7812,622.71875 z "
     id="ani2" />
  <path
     style="fill:url(#linearGradient4861);fill-opacity:1;fill-rule:evenodd;stroke:none;stroke-width:0.25000012pt;stroke-linecap:butt;stroke-linejoin:miter;stroke-opacity:1"
     d="M -1580,720 L -1580,1067.625 L -855.96875,981.84375 L -843.53125,938.625 L -1367.9062,720 L -1580,720 z M -1486.9062,744.625 C -1478.5192,744.625 -1471.6562,751.20891 -1471.6562,759.96875 L -1471.8438,933.625 L -1431.2188,973.40625 L -1345.4688,973.40625 C -1342.9014,973.40651 -1340.8128,975.49514 -1340.8125,978.0625 L -1340.8125,1009.9375 C -1340.8128,1012.5049 -1342.9014,1014.5934 -1345.4688,1014.5938 L -1552.4375,1014.5938 C -1555.0049,1014.5934 -1557.0935,1012.5049 -1557.0938,1009.9375 L -1557.0938,978.0625 C -1557.0935,975.49514 -1555.0049,973.40651 -1552.4375,973.40625 L -1544,973.40625 L -1502.5625,932.8125 L -1502.2812,759.96875 C -1502.2594,751.55036 -1495.3235,744.62581 -1486.9062,744.625 z M -1486.9062,753.9375 C -1490.3062,753.93783 -1492.9912,756.57003 -1493,759.96875 L -1493.2812,934.78125 C -1493.2834,936.02766 -1493.7974,937.22124 -1494.6875,938.09375 L -1530.7188,973.40625 L -1513.5625,973.40625 L -1501.2812,961.28125 C -1499.9479,959.95176 -1497.925,959.55569 -1496.1875,960.28125 C -1494.45,961.00679 -1493.3356,962.7109 -1493.3438,964.59375 L -1493.3438,973.40625 L -1481.1875,973.40625 L -1481.1875,965.25 C -1481.184,963.37979 -1480.0686,961.69168 -1478.3438,960.96875 C -1476.6189,960.24584 -1474.6172,960.62865 -1473.2812,961.9375 L -1461.6875,973.40625 L -1444.5,973.40625 L -1479.75,938.90625 C -1480.6401,938.03373 -1481.1229,936.84015 -1481.125,935.59375 L -1480.9062,759.96875 C -1480.9062,756.73183 -1483.4034,753.9375 -1486.9062,753.9375 z M -1547.7812,982.71875 L -1547.7812,1005.2812 L -1350.125,1005.2812 L -1350.125,982.71875 L -1547.7812,982.71875 z "
     id="ani3" />
  <path
     style="fill:url(#linearGradient6767);fill-opacity:1;fill-rule:evenodd;stroke:none;stroke-width:0.25000012pt;stroke-linecap:butt;stroke-linejoin:miter;stroke-opacity:1"
     d="M -1580,1080 L -1580,1427.625 L -855.96875,1341.8438 L -843.53125,1298.625 L -1367.9062,1080 L -1580,1080 z M -1486.9062,1104.625 C -1478.5192,1104.625 -1471.6562,1111.2089 -1471.6562,1119.9688 L -1471.5938,1144.0938 L -1447.125,1119.3125 C -1438.7882,1111.2631 -1434.6018,1104.625 -1418.0938,1104.625 C -1407.4261,1104.625 -1400.8258,1113.9193 -1405.0312,1120.5938 L -1471.6562,1187.625 L -1471.8438,1293.625 L -1431.2188,1333.4062 L -1345.4688,1333.4062 C -1342.9014,1333.4066 -1340.8128,1335.4951 -1340.8125,1338.0625 L -1340.8125,1369.9375 C -1340.8128,1372.5049 -1342.9014,1374.5935 -1345.4688,1374.5938 L -1552.4375,1374.5938 C -1555.0049,1374.5934 -1557.0935,1372.5049 -1557.0938,1369.9375 L -1557.0938,1338.0625 C -1557.0935,1335.4951 -1555.0049,1333.4065 -1552.4375,1333.4062 L -1544,1333.4062 L -1502.5625,1292.8125 L -1502.2812,1119.9688 C -1502.2594,1111.5503 -1495.3235,1104.6258 -1486.9062,1104.625 z M -1420.6562,1113.6875 C -1424.7799,1113.6305 -1430.7043,1115.6548 -1434.7188,1119.9375 L -1469.7812,1155.4062 C -1472.4082,1158.014 -1474.301,1160.3545 -1478.0625,1159.625 C -1479.7973,1158.9069 -1480.9338,1157.2838 -1480.9375,1155.4062 L -1480.9062,1119.9688 C -1480.9062,1116.7317 -1483.4034,1113.9375 -1486.9062,1113.9375 C -1490.3062,1113.9378 -1492.9912,1116.57 -1493,1119.9688 L -1493.2812,1294.7812 C -1493.2834,1296.0278 -1493.7974,1297.2212 -1494.6875,1298.0938 L -1530.7188,1333.4062 L -1513.5625,1333.4062 L -1501.2812,1321.2812 C -1499.9479,1319.9519 -1497.925,1319.5557 -1496.1875,1320.2812 C -1494.45,1321.0069 -1493.3356,1322.7109 -1493.3438,1324.5938 L -1493.3438,1333.4062 L -1481.1875,1333.4062 L -1481.1875,1325.25 C -1481.184,1323.3798 -1480.0686,1321.6917 -1478.3438,1320.9688 C -1476.6189,1320.2457 -1474.6172,1320.6286 -1473.2812,1321.9375 L -1461.6875,1333.4062 L -1444.5,1333.4062 L -1479.75,1298.9062 C -1480.6401,1298.0338 -1481.1229,1296.8401 -1481.125,1295.5938 L -1480.9688,1185.6875 C -1480.9666,1184.4554 -1480.466,1183.2765 -1479.5938,1182.4062 L -1417.4062,1119.9375 C -1414.2098,1115.883 -1416.5326,1113.7445 -1420.6562,1113.6875 z M -1547.7812,1342.7188 L -1547.7812,1365.2812 L -1350.125,1365.2812 L -1350.125,1342.7188 L -1547.7812,1342.7188 z "
     id="ani4" />
  <path
     style="fill:url(#linearGradient7288);fill-opacity:1.0;fill-rule:evenodd;stroke:none;stroke-width:0.25000012pt;stroke-linecap:butt;stroke-linejoin:miter;stroke-opacity:1"
     d="M -1580,1440 L -1580,1787.625 L -855.96875,1701.8438 L -843.53125,1658.625 L -1367.9062,1440 L -1580,1440 z M -1486.9062,1464.625 L -1371.6875,1464.625 C -1366.175,1464.547 -1360.9843,1467.4267 -1358.1875,1472.2188 C -1355.3914,1477.0094 -1355.3913,1482.9593 -1358.1875,1487.75 C -1360.9784,1492.5318 -1366.0892,1495.4533 -1371.625,1495.375 L -1419.4062,1495.375 L -1471.6562,1547.625 L -1471.8438,1653.625 L -1431.2188,1693.4062 L -1345.4688,1693.4062 C -1342.9014,1693.4065 -1340.8128,1695.4951 -1340.8125,1698.0625 L -1340.8125,1729.9375 C -1340.8128,1732.5049 -1342.9014,1734.5935 -1345.4688,1734.5938 L -1552.4375,1734.5938 C -1555.0049,1734.5935 -1557.0935,1732.5049 -1557.0938,1729.9375 L -1557.0938,1698.0625 C -1557.0935,1695.4951 -1555.0049,1693.4065 -1552.4375,1693.4062 L -1544,1693.4062 L -1502.5625,1652.8125 L -1502.2812,1479.9688 C -1502.2594,1471.5504 -1495.3235,1464.6258 -1486.9062,1464.625 z M -1486.9062,1473.9375 C -1490.3062,1473.9378 -1492.9912,1476.57 -1493,1479.9688 L -1493.2812,1654.7812 C -1493.2834,1656.0277 -1493.7974,1657.2212 -1494.6875,1658.0938 L -1530.7188,1693.4062 L -1513.5625,1693.4062 L -1501.2812,1681.2812 C -1499.9479,1679.9518 -1497.925,1679.5557 -1496.1875,1680.2812 C -1494.45,1681.0068 -1493.3356,1682.7109 -1493.3438,1684.5938 L -1493.3438,1693.4062 L -1481.1875,1693.4062 L -1481.1875,1685.25 C -1481.184,1683.3798 -1480.0686,1681.6917 -1478.3438,1680.9688 C -1476.6189,1680.2458 -1474.6172,1680.6286 -1473.2812,1681.9375 L -1461.6875,1693.4062 L -1444.5,1693.4062 L -1479.75,1658.9062 C -1480.6401,1658.0337 -1481.1229,1656.8401 -1481.125,1655.5938 L -1480.9688,1545.6875 C -1480.9666,1544.4554 -1480.466,1543.2765 -1479.5938,1542.4062 L -1424.5938,1487.4375 C -1423.7235,1486.5652 -1422.5446,1486.0647 -1421.3125,1486.0625 L -1371.5625,1486.0625 C -1369.3676,1486.0625 -1367.3249,1484.9578 -1366.2188,1483.0625 C -1365.1178,1481.1761 -1365.1177,1478.8239 -1366.2188,1476.9375 C -1367.319,1475.0524 -1369.3446,1473.9061 -1371.5625,1473.9375 L -1486.9062,1473.9375 z M -1476.2188,1486.0625 L -1451.6562,1486.0625 C -1449.7787,1486.0662 -1448.0618,1487.2027 -1447.3438,1488.9375 C -1446.6257,1490.6723 -1447.0493,1492.6704 -1448.375,1494 L -1473,1518.625 C -1474.3296,1519.9507 -1476.3277,1520.3431 -1478.0625,1519.625 C -1479.7973,1518.9069 -1480.9338,1517.2213 -1480.9375,1515.3438 L -1480.875,1490.7188 C -1480.8747,1488.1514 -1478.7861,1486.0628 -1476.2188,1486.0625 z M -1471.5625,1495.375 L -1471.5938,1504.0938 L -1462.875,1495.375 L -1471.5625,1495.375 z M -1547.7812,1702.7188 L -1547.7812,1725.2812 L -1350.125,1725.2812 L -1350.125,1702.7188 L -1547.7812,1702.7188 z "
     id="ani5" />
  <path
     style="fill:url(#linearGradient7804);fill-opacity:1;fill-rule:evenodd;stroke:none;stroke-width:0.25000012pt;stroke-linecap:butt;stroke-linejoin:miter;stroke-opacity:1"
     d="M -780,0 L -780,347.625 L -55.96875,261.84375 L -43.53125,218.625 L -567.90625,0 L -780,0 z M -686.90625,24.625 L -571.6875,24.625 C -566.17501,24.547043 -560.98434,27.426704 -558.1875,32.21875 C -555.39142,37.00944 -555.39133,42.959259 -558.1875,47.75 C -560.97843,52.531828 -566.08922,55.453286 -571.625,55.375 L -600.28125,55.375 C -594.77398,67.2202 -594.20021,78.143282 -595.875,86.4375 C -599.98738,97.380848 -615.72459,90.276628 -611.84375,83.21875 C -610.48847,76.506906 -610.73691,67.316213 -618.875,55.375 L -619.40625,55.375 L -671.65625,107.625 L -671.84375,213.625 L -631.21875,253.40625 L -545.46875,253.40625 C -542.90139,253.40651 -540.81278,255.49514 -540.8125,258.0625 L -540.8125,289.9375 C -540.81276,292.50486 -542.90138,294.59348 -545.46875,294.59375 L -752.4375,294.59375 C -755.00487,294.59349 -757.09349,292.50486 -757.09375,289.9375 L -757.09375,258.0625 C -757.09349,255.49514 -755.00487,253.40651 -752.4375,253.40625 L -744,253.40625 L -702.5625,212.8125 L -702.28125,39.96875 C -702.25935,31.550364 -695.32348,24.625807 -686.90625,24.625 z M -686.90625,33.9375 C -690.30615,33.937826 -692.99116,36.570026 -693,39.96875 L -693.28125,214.78125 C -693.28335,216.02766 -693.79743,217.22124 -694.6875,218.09375 L -730.71875,253.40625 L -713.5625,253.40625 L -701.28125,241.28125 C -699.94793,239.95176 -697.92498,239.55569 -696.1875,240.28125 C -694.45002,241.00679 -693.33564,242.7109 -693.34375,244.59375 L -693.34375,253.40625 L -681.1875,253.40625 L -681.1875,245.25 C -681.18399,243.37979 -680.06859,241.69168 -678.34375,240.96875 C -676.6189,240.24584 -674.61715,240.62865 -673.28125,241.9375 L -661.6875,253.40625 L -644.5,253.40625 L -679.75,218.90625 C -680.64008,218.03373 -681.1229,216.84015 -681.125,215.59375 L -680.96875,105.6875 C -680.96659,104.45538 -680.46601,103.27647 -679.59375,102.40625 L -624.59375,47.4375 C -623.72352,46.565234 -622.54462,46.064662 -621.3125,46.0625 C -606.03631,46.063681 -527.34214,46.061258 -571.5625,46.0625 C -569.36784,46.093536 -567.32495,44.95779 -566.21875,43.0625 C -565.11775,41.176122 -565.11774,38.823928 -566.21875,36.9375 C -567.31898,35.052408 -569.34457,33.906137 -571.5625,33.9375 L -686.90625,33.9375 z M -676.21875,46.0625 L -651.65625,46.0625 C -649.77866,46.066164 -648.06183,47.202659 -647.34375,48.9375 C -646.62567,50.672341 -647.04928,52.670425 -648.375,54 L -673,78.625 C -674.32957,79.950727 -676.32767,80.343086 -678.0625,79.625 C -679.79734,78.906915 -680.93384,77.221326 -680.9375,75.34375 L -680.875,50.71875 C -680.87474,48.151385 -678.78611,46.062757 -676.21875,46.0625 z M -671.5625,55.375 L -671.59375,64.09375 L -662.875,55.375 L -671.5625,55.375 z M -747.78125,262.71875 L -747.78125,285.28125 L -550.125,285.28125 L -550.125,262.71875 L -747.78125,262.71875 z "
     id="ani6" />
  <path
     style="fill:url(#linearGradient8566);fill-opacity:1;fill-rule:evenodd;stroke:none;stroke-width:0.25000012pt;stroke-linecap:butt;stroke-linejoin:miter;stroke-opacity:1"
     d="M -780,360 L -780,707.625 L -55.96875,621.84375 L -43.53125,578.625 L -567.90625,360 L -780,360 z M -686.90625,384.625 L -571.6875,384.625 C -566.17501,384.54704 -560.98434,387.4267 -558.1875,392.21875 C -555.39142,397.00944 -555.39133,402.95926 -558.1875,407.75 C -560.97843,412.53183 -566.08922,415.45329 -571.625,415.375 L -600.28125,415.375 C -594.77398,427.2202 -594.20021,438.14328 -595.875,446.4375 C -596.56391,449.84922 -597.6408,452.72178 -598.75,455.28125 C -602.00561,460.35675 -605.71769,463.30208 -612.625,467.3125 C -628.18119,474.61611 -637.02674,481.1863 -640.5625,485.6875 C -644.53471,490.74429 -643.78215,491.90464 -642.28125,494.5625 C -641.26421,496.36353 -640.28701,498.40958 -637.71875,500.3125 L -634.3125,501.78125 C -622.43931,506.45388 -632.17202,521.18356 -640.6875,517.03125 C -645.94064,514.04986 -652.40153,509.76493 -656.46875,502.5625 C -660.53596,495.36007 -660.29213,484.47061 -653.34375,475.625 C -646.89479,467.41518 -635.5662,459.7723 -617.40625,451.5625 C -616.43073,450.26077 -615.14935,449.24998 -613.59375,448.71875 C -612.94616,447.196 -612.30112,445.48377 -611.84375,443.21875 C -610.48847,436.50691 -610.73691,427.31621 -618.875,415.375 L -619.40625,415.375 L -671.65625,467.625 L -671.84375,573.625 L -631.21875,613.40625 L -545.46875,613.40625 C -542.90139,613.40651 -540.81278,615.49514 -540.8125,618.0625 L -540.8125,649.9375 C -540.81276,652.50486 -542.90138,654.59348 -545.46875,654.59375 L -752.4375,654.59375 C -755.00487,654.59349 -757.09349,652.50486 -757.09375,649.9375 L -757.09375,618.0625 C -757.09349,615.49514 -755.00487,613.40651 -752.4375,613.40625 L -744,613.40625 L -702.5625,572.8125 L -702.28125,399.96875 C -702.25935,391.55036 -695.32348,384.62581 -686.90625,384.625 z M -686.90625,393.9375 C -690.30615,393.93783 -692.99116,396.57003 -693,399.96875 L -693.28125,574.78125 C -693.28335,576.02766 -693.79743,577.22124 -694.6875,578.09375 L -730.71875,613.40625 L -713.5625,613.40625 L -701.28125,601.28125 C -699.94793,599.95176 -697.92498,599.55569 -696.1875,600.28125 C -694.45002,601.00679 -693.33564,602.7109 -693.34375,604.59375 L -693.34375,613.40625 L -681.1875,613.40625 L -681.1875,605.25 C -681.18399,603.37979 -680.06859,601.69168 -678.34375,600.96875 C -676.6189,600.24584 -674.61715,600.62865 -673.28125,601.9375 L -661.6875,613.40625 L -644.5,613.40625 L -679.75,578.90625 C -680.64008,578.03373 -681.1229,576.84015 -681.125,575.59375 L -680.96875,465.6875 C -680.96659,464.45538 -680.46601,463.27647 -679.59375,462.40625 L -624.59375,407.4375 C -623.72352,406.56523 -622.54462,406.06466 -621.3125,406.0625 C -606.03631,406.06367 -527.34214,406.06127 -571.5625,406.0625 C -569.36784,406.09354 -567.32495,404.95779 -566.21875,403.0625 C -565.11775,401.17612 -565.11774,398.82393 -566.21875,396.9375 C -567.31898,395.05241 -569.34457,393.90614 -571.5625,393.9375 L -686.90625,393.9375 z M -676.21875,406.0625 L -651.65625,406.0625 C -649.77866,406.06616 -648.06183,407.20266 -647.34375,408.9375 C -646.62567,410.67234 -647.04928,412.67042 -648.375,414 L -673,438.625 C -674.32957,439.95073 -676.32767,440.34309 -678.0625,439.625 C -679.79734,438.90691 -680.93384,437.22133 -680.9375,435.34375 L -680.875,410.71875 C -680.87474,408.15139 -678.78611,406.06276 -676.21875,406.0625 z M -671.5625,415.375 L -671.59375,424.09375 L -662.875,415.375 L -671.5625,415.375 z M -747.78125,622.71875 L -747.78125,645.28125 L -550.125,645.28125 L -550.125,622.71875 L -747.78125,622.71875 z "
     id="ani7" />
  <path
     style="fill:url(#linearGradient9082);fill-opacity:1;fill-rule:evenodd;stroke:none;stroke-width:0.25000012pt;stroke-linecap:butt;stroke-linejoin:miter;stroke-opacity:1"
     d="M -780,720 L -780,1067.625 L -55.96875,981.84375 L -43.53125,938.625 L -567.90625,720 L -780,720 z M -686.90625,744.625 L -571.6875,744.625 C -566.17501,744.54704 -560.98434,747.4267 -558.1875,752.21875 C -555.39142,757.00944 -555.39133,762.95926 -558.1875,767.75 C -560.97843,772.53183 -566.08922,775.45329 -571.625,775.375 L -600.28125,775.375 C -594.77398,787.2202 -594.20021,798.14328 -595.875,806.4375 C -596.56391,809.84922 -597.6408,812.72178 -598.75,815.28125 C -597.10485,816.72522 -595.42064,818.31756 -593.96875,820.71875 C -592.33594,823.41915 -590.88028,828.57956 -593.40625,833 C -594.0152,834.06564 -594.99244,835.63128 -595.84375,837 L -600.9375,846.03125 C -601.6169,847.39708 -602.29195,848.77412 -602.9375,850.3125 C -604.01378,852.87734 -604.84915,855.57304 -605.53125,858.28125 L -606.75,869.625 C -607.02818,872.07267 -607.33262,882.08276 -618.6875,883.53125 C -622.74553,883.70353 -627.22271,882.87283 -630.875,881.625 C -630.875,881.625 -635.43438,880.01265 -640.6875,877.03125 C -645.94064,874.04986 -652.40153,869.76493 -656.46875,862.5625 C -660.53596,855.36007 -660.29213,844.47061 -653.34375,835.625 C -646.89479,827.41518 -635.5662,819.7723 -617.40625,811.5625 C -616.43073,810.26077 -615.14935,809.24998 -613.59375,808.71875 C -612.94616,807.196 -612.30112,805.48377 -611.84375,803.21875 C -610.48847,796.50691 -610.73691,787.31621 -618.875,775.375 L -619.40625,775.375 L -671.65625,827.625 L -671.84375,933.625 L -631.21875,973.40625 L -545.46875,973.40625 C -542.90139,973.40651 -540.81278,975.49514 -540.8125,978.0625 L -540.8125,1009.9375 C -540.81276,1012.5049 -542.90138,1014.5935 -545.46875,1014.5938 L -752.4375,1014.5938 C -755.00487,1014.5935 -757.09349,1012.5049 -757.09375,1009.9375 L -757.09375,978.0625 C -757.09349,975.49514 -755.00487,973.40651 -752.4375,973.40625 L -744,973.40625 L -702.5625,932.8125 L -702.28125,759.96875 C -702.25935,751.55036 -695.32348,744.62581 -686.90625,744.625 z M -686.90625,753.9375 C -690.30615,753.93783 -692.99116,756.57003 -693,759.96875 L -693.28125,934.78125 C -693.28335,936.02766 -693.79743,937.22124 -694.6875,938.09375 L -730.71875,973.40625 L -713.5625,973.40625 L -701.28125,961.28125 C -699.94793,959.95176 -697.92498,959.55569 -696.1875,960.28125 C -694.45002,961.00679 -693.33564,962.7109 -693.34375,964.59375 L -693.34375,973.40625 L -681.1875,973.40625 L -681.1875,965.25 C -681.18399,963.37979 -680.06859,961.69168 -678.34375,960.96875 C -676.6189,960.24584 -674.61715,960.62865 -673.28125,961.9375 L -661.6875,973.40625 L -644.5,973.40625 L -679.75,938.90625 C -680.64008,938.03373 -681.1229,936.84015 -681.125,935.59375 L -680.96875,825.6875 C -680.96659,824.45538 -680.46601,823.27647 -679.59375,822.40625 L -624.59375,767.4375 C -623.72352,766.56523 -622.54462,766.06466 -621.3125,766.0625 C -604.72917,766.06288 -588.14583,766.06204 -571.5625,766.0625 C -569.36784,766.09354 -567.32495,764.95779 -566.21875,763.0625 C -565.11775,761.17612 -565.11774,758.82393 -566.21875,756.9375 C -567.31898,755.05241 -569.34457,753.90614 -571.5625,753.9375 L -686.90625,753.9375 z M -676.21875,766.0625 L -651.65625,766.0625 C -649.77866,766.06616 -648.06183,767.20266 -647.34375,768.9375 C -646.62567,770.67234 -647.04928,772.67042 -648.375,774 L -673,798.625 C -674.32957,799.95073 -676.32767,800.34309 -678.0625,799.625 C -679.79734,798.90691 -680.93384,797.22133 -680.9375,795.34375 L -680.875,770.71875 C -680.87474,768.15139 -678.78611,766.06276 -676.21875,766.0625 z M -671.5625,775.375 L -671.59375,784.09375 L -662.875,775.375 L -671.5625,775.375 z M -612.625,827.3125 C -628.18119,834.61611 -637.02674,841.1863 -640.5625,845.6875 C -644.53471,850.74429 -643.78215,851.90464 -642.28125,854.5625 C -641.26421,856.36353 -638.94326,858.40958 -636.375,860.3125 C -626.05441,868.31572 -623.52589,868.28916 -621.21875,853.875 C -620.29124,850.39116 -619.20186,847.04428 -617.9375,844.03125 C -614.73777,836.4062 -611.2627,830.81961 -609.28125,827.71875 C -609.33166,827.66791 -609.36997,827.66534 -609.40625,827.625 C -610.16895,827.72634 -610.93664,827.71756 -611.71875,827.59375 C -612.03249,827.54408 -612.32347,827.39705 -612.625,827.3125 z M -747.78125,982.71875 L -747.78125,1005.2812 L -550.125,1005.2812 L -550.125,982.71875 L -747.78125,982.71875 z "
     id="ani8" />
  <path
     style="fill:url(#linearGradient10090);fill-opacity:1;fill-rule:evenodd;stroke:none;stroke-width:0.25000012pt;stroke-linecap:butt;stroke-linejoin:miter;stroke-opacity:1"
     d="M -780,1080 L -780,1427.625 L -55.96875,1341.8438 L -43.53125,1298.625 L -567.90625,1080 L -780,1080 z M -686.90625,1104.625 L -571.6875,1104.625 C -566.17501,1104.547 -560.98434,1107.4267 -558.1875,1112.2188 C -555.39142,1117.0094 -555.39133,1122.9593 -558.1875,1127.75 C -560.97843,1132.5318 -566.08922,1135.4533 -571.625,1135.375 L -600.28125,1135.375 C -594.77398,1147.2202 -594.20021,1158.1433 -595.875,1166.4375 C -596.56391,1169.8492 -597.6408,1172.7218 -598.75,1175.2812 C -597.10485,1176.7252 -595.42064,1178.3176 -593.96875,1180.7188 C -592.33594,1183.4191 -590.88028,1188.5796 -593.40625,1193 C -594.0152,1194.0656 -594.99244,1195.6313 -595.84375,1197 L -600.9375,1206.0312 C -601.6169,1207.3971 -602.29195,1208.7741 -602.9375,1210.3125 C -604.01378,1212.8773 -604.84915,1215.573 -605.53125,1218.2812 L -605.53125,1228.6875 C -605.96439,1228.9857 -606.3345,1229.3185 -606.75,1229.625 C -606.62244,1231.4641 -606.36429,1233.2649 -605.84375,1235 C -604.55199,1239.3085 -607.00398,1243.8645 -611.3125,1245.1562 C -613.99832,1245.9615 -616.66474,1245.1766 -618.6875,1243.5312 C -635.325,1275.8496 -598.08635,1321.3622 -555.75,1282.5312 L -536.4375,1300.7812 L -544.46875,1311.7812 L -561.46875,1300.7812 L -575,1306.125 L -578.96875,1326.375 L -593.5,1326.5 L -598,1306.7812 L -611.53125,1300.7812 L -628.53125,1312.2812 L -639.0625,1301.2812 L -626.65625,1285.375 L -632.0625,1272.25 L -651.59375,1267.2188 L -651.53125,1252.875 L -632.5625,1249.7188 L -629.375,1241.9688 C -629.87234,1241.878 -630.39321,1241.8112 -630.875,1241.625 C -630.875,1241.625 -635.43438,1240.0127 -640.6875,1237.0312 C -645.94064,1234.0499 -652.40153,1229.7649 -656.46875,1222.5625 C -660.53596,1215.3601 -660.29213,1204.4706 -653.34375,1195.625 C -646.89479,1187.4152 -635.5662,1179.7723 -617.40625,1171.5625 C -616.43073,1170.2608 -615.14935,1169.25 -613.59375,1168.7188 C -612.94616,1167.196 -612.30112,1165.4838 -611.84375,1163.2188 C -610.48847,1156.5069 -610.73691,1147.3162 -618.875,1135.375 L -619.40625,1135.375 L -671.65625,1187.625 L -671.84375,1293.625 L -631.21875,1333.4062 L -545.46875,1333.4062 C -542.90139,1333.4065 -540.81278,1335.4951 -540.8125,1338.0625 L -540.8125,1369.9375 C -540.81276,1372.5049 -542.90138,1374.5935 -545.46875,1374.5938 L -752.4375,1374.5938 C -755.00487,1374.5935 -757.09349,1372.5049 -757.09375,1369.9375 L -757.09375,1338.0625 C -757.09349,1335.4951 -755.00487,1333.4065 -752.4375,1333.4062 L -744,1333.4062 L -702.5625,1292.8125 L -702.28125,1119.9688 C -702.25935,1111.5504 -695.32348,1104.6258 -686.90625,1104.625 z M -686.90625,1113.9375 C -690.30615,1113.9378 -692.99116,1116.57 -693,1119.9688 L -693.28125,1294.7812 C -693.28335,1296.0277 -693.79743,1297.2212 -694.6875,1298.0938 L -730.71875,1333.4062 L -713.5625,1333.4062 L -701.28125,1321.2812 C -699.94793,1319.9518 -697.92498,1319.5557 -696.1875,1320.2812 C -694.45002,1321.0068 -693.33564,1322.7109 -693.34375,1324.5938 L -693.34375,1333.4062 L -681.1875,1333.4062 L -681.1875,1325.25 C -681.18399,1323.3798 -680.06859,1321.6917 -678.34375,1320.9688 C -676.6189,1320.2458 -674.61715,1320.6286 -673.28125,1321.9375 L -661.6875,1333.4062 L -644.5,1333.4062 L -679.75,1298.9062 C -680.64008,1298.0337 -681.1229,1296.8401 -681.125,1295.5938 L -680.96875,1185.6875 C -680.96659,1184.4554 -680.46601,1183.2765 -679.59375,1182.4062 L -624.59375,1127.4375 C -623.72352,1126.5652 -622.54462,1126.0647 -621.3125,1126.0625 C -606.03631,1126.0635 -527.34214,1126.0615 -571.5625,1126.0625 C -569.36784,1126.0935 -567.32495,1124.9578 -566.21875,1123.0625 C -565.11775,1121.1761 -565.11774,1118.8239 -566.21875,1116.9375 C -567.31898,1115.0524 -569.34457,1113.9061 -571.5625,1113.9375 L -686.90625,1113.9375 z M -676.21875,1126.0625 L -651.65625,1126.0625 C -649.77866,1126.0662 -648.06183,1127.2027 -647.34375,1128.9375 C -646.62567,1130.6723 -647.04928,1132.6704 -648.375,1134 L -673,1158.625 C -674.32957,1159.9507 -676.32767,1160.3431 -678.0625,1159.625 C -679.79734,1158.9069 -680.93384,1157.2213 -680.9375,1155.3438 L -680.875,1130.7188 C -680.87474,1128.1514 -678.78611,1126.0628 -676.21875,1126.0625 z M -671.5625,1135.375 L -671.59375,1144.0938 L -662.875,1135.375 L -671.5625,1135.375 z M -612.625,1187.3125 C -628.18119,1194.6161 -637.02674,1201.1863 -640.5625,1205.6875 C -644.53471,1210.7443 -643.78215,1211.9046 -642.28125,1214.5625 C -641.26421,1216.3635 -638.94326,1218.4096 -636.375,1220.3125 L -636.78125,1219.5938 L -626.03125,1210.8125 L -621.21875,1213.875 C -620.29124,1210.3912 -619.20186,1207.0443 -617.9375,1204.0312 C -614.73777,1196.4062 -611.2627,1190.8196 -609.28125,1187.7188 C -609.33166,1187.6679 -609.36997,1187.6653 -609.40625,1187.625 C -610.16895,1187.7263 -610.93664,1187.7176 -611.71875,1187.5938 C -612.03249,1187.5441 -612.32347,1187.3971 -612.625,1187.3125 z M -747.78125,1342.7188 L -747.78125,1365.2812 L -550.125,1365.2812 L -550.125,1342.7188 L -747.78125,1342.7188 z "
     id="ani9" />
  <path
     style="fill:url(#linearGradient10606);fill-opacity:1;fill-rule:evenodd;stroke:none;stroke-width:0.25000012pt;stroke-linecap:butt;stroke-linejoin:miter;stroke-opacity:1"
     d="M -780,1440 L -780,1787.625 L -55.96875,1701.8438 L -43.53125,1658.625 L -567.90625,1440 L -780,1440 z M -686.90625,1464.625 L -571.6875,1464.625 C -566.17501,1464.547 -560.98434,1467.4267 -558.1875,1472.2188 C -555.39142,1477.0094 -555.39133,1482.9593 -558.1875,1487.75 C -560.97843,1492.5318 -566.08922,1495.4533 -571.625,1495.375 L -600.28125,1495.375 C -594.77398,1507.2202 -594.20021,1518.1433 -595.875,1526.4375 C -596.56391,1529.8492 -597.6408,1532.7218 -598.75,1535.2812 C -597.10485,1536.7252 -595.42064,1538.3176 -593.96875,1540.7188 C -592.33594,1543.4191 -590.88028,1548.5796 -593.40625,1553 C -594.0152,1554.0656 -594.99244,1555.6313 -595.84375,1557 L -580.59375,1555.875 L -580.59375,1592.4688 L -553.25,1556.25 L -531.4375,1561.75 L -559.15625,1596.9062 L -531.8125,1635 L -552.875,1641.2812 L -580.59375,1601.7188 L -580.59375,1637.9375 L -600.9375,1640.5312 L -600.9375,1566.0312 C -601.6169,1567.3971 -602.29195,1568.7741 -602.9375,1570.3125 C -604.01378,1572.8773 -604.84915,1575.573 -605.53125,1578.2812 L -605.53125,1588.6875 C -605.96439,1588.9857 -606.3345,1589.3185 -606.75,1589.625 C -606.62244,1591.4641 -606.36429,1593.2649 -605.84375,1595 C -604.55199,1599.3085 -607.00398,1603.8645 -611.3125,1605.1562 C -613.99832,1605.9615 -616.66474,1605.1766 -618.6875,1603.5312 C -635.325,1635.8496 -598.08635,1681.3622 -555.75,1642.5312 L -536.4375,1660.7812 L -544.46875,1671.7812 L -561.46875,1660.7812 L -575,1666.125 L -578.96875,1686.375 L -593.5,1686.5 L -598,1666.7812 L -611.53125,1660.7812 L -628.53125,1672.2812 L -639.0625,1661.2812 L -626.65625,1645.375 L -632.0625,1632.25 L -651.59375,1627.2188 L -651.53125,1612.875 L -632.5625,1609.7188 L -629.375,1601.9688 C -629.87234,1601.878 -630.39321,1601.8112 -630.875,1601.625 C -630.875,1601.625 -635.43438,1600.0127 -640.6875,1597.0312 C -645.94064,1594.0499 -652.40153,1589.7649 -656.46875,1582.5625 C -660.53596,1575.3601 -660.29213,1564.4706 -653.34375,1555.625 C -646.89479,1547.4152 -635.5662,1539.7723 -617.40625,1531.5625 C -616.43073,1530.2608 -615.14935,1529.25 -613.59375,1528.7188 C -612.94616,1527.196 -612.30112,1525.4838 -611.84375,1523.2188 C -610.48847,1516.5069 -610.73691,1507.3162 -618.875,1495.375 L -619.40625,1495.375 L -671.65625,1547.625 L -671.84375,1653.625 L -631.21875,1693.4062 L -545.46875,1693.4062 C -542.90139,1693.4065 -540.81278,1695.4951 -540.8125,1698.0625 L -540.8125,1729.9375 C -540.81276,1732.5049 -542.90138,1734.5935 -545.46875,1734.5938 L -752.4375,1734.5938 C -755.00487,1734.5935 -757.09349,1732.5049 -757.09375,1729.9375 L -757.09375,1698.0625 C -757.09349,1695.4951 -755.00487,1693.4065 -752.4375,1693.4062 L -744,1693.4062 L -702.5625,1652.8125 L -702.28125,1479.9688 C -702.25935,1471.5504 -695.32348,1464.6258 -686.90625,1464.625 z M -686.90625,1473.9375 C -690.30615,1473.9378 -692.99116,1476.57 -693,1479.9688 L -693.28125,1654.7812 C -693.28335,1656.0277 -693.79743,1657.2212 -694.6875,1658.0938 L -730.71875,1693.4062 L -713.5625,1693.4062 L -701.28125,1681.2812 C -699.94793,1679.9518 -697.92498,1679.5557 -696.1875,1680.2812 C -694.45002,1681.0068 -693.33564,1682.7109 -693.34375,1684.5938 L -693.34375,1693.4062 L -681.1875,1693.4062 L -681.1875,1685.25 C -681.18399,1683.3798 -680.06859,1681.6917 -678.34375,1680.9688 C -676.6189,1680.2458 -674.61715,1680.6286 -673.28125,1681.9375 L -661.6875,1693.4062 L -644.5,1693.4062 L -679.75,1658.9062 C -680.64008,1658.0337 -681.1229,1656.8401 -681.125,1655.5938 L -680.96875,1545.6875 C -680.96659,1544.4554 -680.46601,1543.2765 -679.59375,1542.4062 L -624.59375,1487.4375 C -623.72352,1486.5652 -622.54462,1486.0647 -621.3125,1486.0625 C -606.03631,1486.0635 -527.34214,1486.0615 -571.5625,1486.0625 C -569.36784,1486.0935 -567.32495,1484.9578 -566.21875,1483.0625 C -565.11775,1481.1761 -565.11774,1478.8239 -566.21875,1476.9375 C -567.31898,1475.0524 -569.34457,1473.9061 -571.5625,1473.9375 L -686.90625,1473.9375 z M -676.21875,1486.0625 L -651.65625,1486.0625 C -649.77866,1486.0662 -648.06183,1487.2027 -647.34375,1488.9375 C -646.62567,1490.6723 -647.04928,1492.6704 -648.375,1494 L -673,1518.625 C -674.32957,1519.9507 -676.32767,1520.3431 -678.0625,1519.625 C -679.79734,1518.9069 -680.93384,1517.2213 -680.9375,1515.3438 L -680.875,1490.7188 C -680.87474,1488.1514 -678.78611,1486.0628 -676.21875,1486.0625 z M -671.5625,1495.375 L -671.59375,1504.0938 L -662.875,1495.375 L -671.5625,1495.375 z M -612.625,1547.3125 C -628.18119,1554.6161 -637.02674,1561.1863 -640.5625,1565.6875 C -644.53471,1570.7443 -643.78215,1571.9046 -642.28125,1574.5625 C -641.26421,1576.3635 -638.94326,1578.4096 -636.375,1580.3125 L -636.78125,1579.5938 L -626.03125,1570.8125 L -621.21875,1573.875 C -620.29124,1570.3912 -619.20186,1567.0443 -617.9375,1564.0312 C -614.73777,1556.4062 -611.2627,1550.8196 -609.28125,1547.7188 C -609.33166,1547.6679 -609.36997,1547.6653 -609.40625,1547.625 C -610.16895,1547.7263 -610.93664,1547.7176 -611.71875,1547.5938 C -612.03249,1547.5441 -612.32347,1547.3971 -612.625,1547.3125 z M -747.78125,1702.7188 L -747.78125,1725.2812 L -550.125,1725.2812 L -550.125,1702.7188 L -747.78125,1702.7188 z "
     id="ani10" />
  <rect
     style="opacity:1;color:black;fill:black;fill-opacity:0;fill-rule:nonzero;stroke:none;stroke-width:1;stroke-linecap:butt;stroke-linejoin:miter;marker:none;marker-start:none;marker-mid:none;marker-end:none;stroke-miterlimit:4;stroke-dasharray:none;stroke-dashoffset:0;stroke-opacity:1;visibility:visible;display:inline;overflow:visible"
     id="ani0"
     width="32"
     height="32"
     x="-1580"
     y="-40" />
</svg>
