<?xml version="1.0" encoding="UTF-8" standalone="no"?>
<!DOCTYPE svg PUBLIC "-//W3C//DTD SVG 20010904//EN"
"http://www.w3.org/TR/2001/REC-SVG-20010904/DTD/svg10.dtd">
<!-- Created with Sodipodi ("http://www.sodipodi.com/") -->
<svg
   id="svg559"
   sodipodi:version="0.33"
   width="128pt"
   height="128pt"
   sodipodi:docbase="/Users/chris/Desktop/Vectors/"
   sodipodi:docname="/Users/chris/Desktop/Vectors/khangman.svg"
   xmlns="http://www.w3.org/2000/svg"
   xmlns:sodipodi="http://sodipodi.sourceforge.net/DTD/sodipodi-0.dtd"
   xmlns:xlink="http://www.w3.org/1999/xlink">
  <defs
     id="defs561">
    <linearGradient
       id="linearGradient573">
      <stop
         style="stop-color:#8a4d15;stop-opacity:1.0000;"
         offset="0"
         id="stop574" />
      <stop
         style="stop-color:#9f7f00;stop-opacity:1.0000;"
         offset="1.000000"
         id="stop575" />
    </linearGradient>
    <linearGradient
       id="linearGradient569">
      <stop
         style="stop-color:#000;stop-opacity:1;"
         offset="0"
         id="stop570" />
      <stop
         style="stop-color:#fff;stop-opacity:1;"
         offset="1"
         id="stop571" />
    </linearGradient>
    <linearGradient
       xlink:href="#linearGradient573"
       id="linearGradient572"
       x1="0.736364"
       y1="0.570312"
       x2="0.172727"
       y2="-0.375000" />
    <linearGradient
       xlink:href="#linearGradient569"
       id="linearGradient603"
       x1="7.246218e-3"
       y1="0.906237"
       x2="1.079710"
       y2="0.453125" />
    <linearGradient
       xlink:href="#linearGradient569"
       id="linearGradient596"
       x1="-0.195650"
       y1="0.937493"
       x2="0.869565"
       y2="0.500000" />
  </defs>
  <sodipodi:namedview
     id="base" />
  <g
     id="g597">
    <path
       style="font-size:12.000;fill:#120800;fill-rule:evenodd;stroke:#000000;"
       d="M -69.99999 -7.637819 L -64.99999 22.36218 L -2.500000 109.8622 L -37.49999 102.3622 L -38.74999 122.3622 L -2.500000 126.1122 L -1.250000 136.1122 L 3.750002 139.8622 L 6.250002 147.3622 L 15 153.6122 L 17.50000 159.8622 L 25 162.3622 L 26.25000 261.1122 L 37.50000 264.8622 C 37.50000 264.8622 38.75000 273.6122 38.75000 274.8622 C 38.75000 276.1122 45 277.3622 45 277.3622 C 45 277.3622 55 289.8622 57.50000 291.1122 C 60 292.3622 79.99999 303.6122 79.99999 303.6122 L 150 304.8622 L 170 304.8622 L 197.5000 274.8622 L 196.2500 221.1122 L 173.7500 188.6122 L 147.5000 173.6122 L 127.5000 164.8622 L 103.7500 152.3622 L 67.50000 147.3622 L 66.25000 129.8622 L 52.50000 127.3622 L 48.75000 117.3622 L 36.25000 116.1122 L 36.25000 101.1122 L 36.25000 53.61218 L 15 52.36218 L 13.75000 91.11218 L -58.74999 -8.887819 L -69.99999 -7.637819 z "
       id="path564"
       transform="matrix(0.489811,0,0,0.489811,52.93484,9.287201)" />
    <path
       style="font-size:12.000;fill:url(#linearGradient572);fill-rule:evenodd;stroke:#000000;"
       d="M -79.99999 -8.887817 L -74.99999 21.11218 L -12.50000 108.6122 L -47.49999 101.1122 L -48.74999 121.1122 L -12.50000 124.8622 L -11.25000 134.8622 L -6.249997 138.6122 L -3.749997 146.1122 L 5.000002 152.3622 L 7.500002 158.6122 L 15.00000 161.1122 L 16.25000 259.8622 L 27.50000 263.6122 C 27.50000 263.6122 28.75000 272.3622 28.75000 273.6122 C 28.75000 274.8622 35.00000 276.1122 35.00000 276.1122 C 35.00000 276.1122 45 288.6122 47.50000 289.8622 C 50 291.1122 70 302.3622 70 302.3622 L 140 303.6122 L 160 303.6122 L 187.5000 273.6122 L 186.2500 219.8622 L 163.7500 187.3622 L 137.5000 172.3622 L 117.5000 163.6122 L 93.75000 151.1122 L 57.50000 146.1122 L 56.25000 128.6122 L 42.50000 126.1122 L 38.75000 116.1122 L 26.25000 114.8622 L 26.25000 99.86219 L 26.25000 52.36218 L 5.000002 51.11218 L 3.750002 89.86219 L -68.74999 -10.13782 L -79.99999 -8.887817 z "
       id="path563"
       transform="matrix(0.489811,0,0,0.489811,52.93484,9.287201)" />
    <path
       style="font-size:12.000;fill:url(#linearGradient596);fill-rule:evenodd;stroke:#000000;"
       d="M 42.50001 171.1121 L 41.25001 258.6121 L 73.75001 281.1121 L 111.2500 284.8621 L 137.5000 281.1121 L 150.0000 279.8621 L 163.7500 266.1121 L 162.5000 211.1121 L 146.2500 196.1121 L 128.7500 189.8621 L 102.5000 173.6121 L 86.25001 169.8621 L 42.50001 171.1121 z "
       id="path565"
       transform="matrix(0.489811,0,0,0.489811,52.93484,9.287201)" />
    <path
       style="font-size:12.000;fill:#121214;fill-rule:evenodd;stroke:#000000;"
       d="M 38.75001 171.1121 C 38.75001 171.1121 37.50001 258.6121 37.50001 259.8621 C 37.50001 261.1121 46.25001 263.6121 46.25001 263.6121 C 46.25001 263.6121 47.50001 272.3621 50.00001 272.3621 C 52.50001 272.3621 60.00001 274.8621 61.25001 274.8621 C 62.50001 274.8621 70.00001 279.8621 70.00001 279.8621 L 87.50001 284.8621 L 97.50001 288.6121 C 97.50001 288.6121 120.0000 289.8621 122.5000 289.8621 C 125.0000 289.8621 141.2500 284.8621 141.2500 284.8621 L 147.5000 279.8621 L 145.0000 279.8621 L 90.00001 278.6121 L 63.75001 269.8621 L 52.50001 259.8621 L 47.50001 254.8621 L 47.50001 171.1121 L 38.75001 171.1121 z "
       id="path566"
       transform="matrix(0.489811,0,0,0.489811,52.93484,9.287201)" />
    <path
       style="font-size:12.000;fill:#623416;fill-rule:evenodd;"
       d="M 13.75002 159.4120 L 31.25001 132.8120 L 41.45834 128.6120 L 48.75001 128.6120 L 40.00001 152.4120 L 23.95834 163.6120 L 13.75002 159.4120 z "
       id="path567"
       transform="matrix(0.489811,0,0,0.489811,52.93484,9.287201)" />
    <path
       style="font-size:12.000;fill:#623416;fill-rule:evenodd;"
       d="M -8.749978 136.9120 L 8.750010 110.3120 L 18.95834 106.1120 L 26.25001 106.1120 L 17.50001 129.9120 L 1.458340 141.1120 L -8.749978 136.9120 z "
       id="path568"
       transform="matrix(0.489811,0,0,0.489811,52.93484,9.287201)" />
  </g>
</svg>
